<?xml version="1.0" encoding="UTF-8" standalone="no"?>
<!-- Created with Inkscape (http://www.inkscape.org/) -->

<svg
   xmlns:dc="http://purl.org/dc/elements/1.1/"
   xmlns:cc="http://creativecommons.org/ns#"
   xmlns:rdf="http://www.w3.org/1999/02/22-rdf-syntax-ns#"
   xmlns:svg="http://www.w3.org/2000/svg"
   xmlns="http://www.w3.org/2000/svg"
   xmlns:sodipodi="http://sodipodi.sourceforge.net/DTD/sodipodi-0.dtd"
   xmlns:inkscape="http://www.inkscape.org/namespaces/inkscape"
   width="1024"
   height="512"
   viewBox="0 0 1024 512.00002"
   version="1.1"
   id="svg8"
   inkscape:version="0.92.0 r"
   sodipodi:docname="cover.svg"
   inkscape:export-filename="/home/sign/git/shrgrp/public/images/cover.png"
   inkscape:export-xdpi="96"
   inkscape:export-ydpi="96">
  <defs
     id="defs2" />
  <sodipodi:namedview
     id="base"
     pagecolor="#ffffff"
     bordercolor="#666666"
     borderopacity="1.0"
     inkscape:pageopacity="1"
     inkscape:pageshadow="2"
     inkscape:zoom="0.64"
     inkscape:cx="568.05658"
     inkscape:cy="326.25393"
     inkscape:document-units="px"
     inkscape:current-layer="layer2"
     showgrid="false"
     units="px"
     inkscape:window-width="1280"
     inkscape:window-height="995"
     inkscape:window-x="1920"
     inkscape:window-y="0"
     inkscape:window-maximized="1"
     inkscape:snap-object-midpoints="true" />
  <metadata
     id="metadata5">
    <rdf:RDF>
      <cc:Work
         rdf:about="">
        <dc:format>image/svg+xml</dc:format>
        <dc:type
           rdf:resource="http://purl.org/dc/dcmitype/StillImage" />
        <dc:title></dc:title>
      </cc:Work>
    </rdf:RDF>
  </metadata>
  <g
     inkscape:label="Layer 1"
     inkscape:groupmode="layer"
     id="layer1"
     transform="translate(0,-610.51965)">
    <g
       transform="matrix(1.1428571,0,0,1.1428571,438.85715,-343.21705)"
       id="layer1-9"
       inkscape:label="Layer 1"
       style="stroke-width:0.875">
      <ellipse
         ry="51.999996"
         rx="52"
         style="opacity:1;fill:#d45500;fill-opacity:1;stroke:none;stroke-width:1.74999976;stroke-linecap:round;stroke-linejoin:round;stroke-miterlimit:4;stroke-dasharray:none;stroke-dashoffset:0;stroke-opacity:1"
         id="circle4519"
         cx="64"
         cy="1058.5197" />
      <path
         id="path4487"
         transform="translate(0,994.51965)"
         d="M 64,8 A 56,56 0 0 0 8,64 56,56 0 0 0 64,120 56,56 0 0 0 120,64 56,56 0 0 0 64,8 Z m -3.248047,4.115234 c -0.262849,0.01672 -0.524779,0.03786 -0.787109,0.05859 a 52,51.999996 0 0 1 0.787109,-0.05859 z m 8.371094,0.140625 a 52,51.999996 0 0 1 0.251953,0.03125 c -0.08418,-0.0088 -0.16773,-0.02282 -0.251953,-0.03125 z m -13.445313,0.4375 c -0.352945,0.05797 -0.705101,0.118317 -1.05664,0.183594 a 52,51.999996 0 0 1 1.05664,-0.183594 z m 18.460938,0.314453 a 52,51.999996 0 0 1 0.65039,0.146485 c -0.21738,-0.04644 -0.432462,-0.102837 -0.65039,-0.146485 z m -23.28711,0.716797 c -0.494198,0.130583 -0.988081,0.262998 -1.478515,0.408203 a 52,51.999996 0 0 1 1.478515,-0.408203 z M 64,14 c 1.104569,0 2,0.895431 2,2 0,1.104569 -0.895431,2 -2,2 -1.104569,0 -2,-0.895431 -2,-2 0,-1.104569 0.895431,-2 2,-2 z m 15.025391,0.234375 a 52,51.999996 0 0 1 1.0625,0.351563 c -0.354773,-0.115945 -0.705477,-0.243308 -1.0625,-0.351563 z m -32.798829,0.943359 c -0.638288,0.233981 -1.27612,0.471319 -1.90625,0.730469 3.913354,-1.269152 6.894167,-0.236848 9.339844,0.953125 C 56.000814,18.000128 59,20 64,20 c 5,0 7.999186,-1.999872 10.339844,-3.138672 2.473755,-1.203635 5.492478,-2.25394 9.472656,-0.916016 0.002,6.87e-4 0.0038,0.0013 0.0059,0.002 a 52,51.999996 0 0 1 12.119141,7.09375 c 2.933227,2.721933 3.527502,5.764818 3.716797,8.435546 0.1841,2.596501 -0.04883,6.193338 2.451172,10.523438 2.5,4.3302 5.73211,5.927066 7.88867,7.384766 2.22525,1.504006 4.57086,3.545302 5.45508,7.470703 A 52,51.999996 0 0 1 116,64 a 52,51.999996 0 0 1 -0.56055,7.181641 c -0.89112,3.899484 -3.22756,5.934673 -5.44531,7.433593 -2.15659,1.4577 -5.38869,3.054666 -7.88867,7.384766 -2.500062,4.3302 -2.267048,7.926938 -2.451173,10.523438 -0.193405,2.72878 -0.793502,5.848802 -3.896485,8.615232 a 52,51.999996 0 0 1 -12.078124,6.95313 52,51.999996 0 0 1 -1.894532,0.72656 c 0.634846,-0.23291 1.26776,-0.4688 1.894532,-0.72656 -3.913412,1.2691 -6.894197,0.23687 -9.339844,-0.95313 C 71.999144,109.99987 68.999966,108 64,108 c -5.000094,-1e-4 -7.999146,1.99987 -10.339844,3.13867 -2.473697,1.20368 -5.4925,2.25388 -9.472656,0.91602 -0.002,-6.9e-4 -0.0038,-10e-4 -0.0059,-0.002 A 52,51.999996 0 0 1 32.0625,104.95898 C 29.129288,102.23705 28.534961,99.194166 28.345703,96.523438 28.161583,93.926937 28.394511,90.3301 25.894531,86 23.39457,81.6698 20.162438,80.072934 18.005859,78.615234 15.780599,77.111228 13.435036,75.069932 12.550781,71.144531 A 52,51.999996 0 0 1 12,64 52,51.999996 0 0 1 12.560547,56.818359 c 0.891126,-3.899484 3.22754,-5.934673 5.445312,-7.433593 2.156575,-1.4577 5.388685,-3.054666 7.888672,-7.384766 2.500083,-4.3302 2.267057,-7.926938 2.451172,-10.523438 0.193401,-2.72878 0.793525,-5.848802 3.896485,-8.615234 a 52,51.999996 0 0 1 12.078124,-6.953125 52,51.999996 0 0 1 1.90625,-0.730469 z m -14.085937,7.757813 c -0.364793,0.282454 -0.719279,0.577303 -1.076172,0.869141 a 52,51.999996 0 0 1 1.076172,-0.869141 z M 96.458984,23.4375 a 52,51.999996 0 0 1 1.810547,1.507812 C 97.678632,24.429309 97.073847,23.927559 96.458984,23.4375 Z m -68.322265,2.939453 c -0.269357,0.256137 -0.531202,0.519511 -0.794922,0.78125 a 52,51.999996 0 0 1 0.794922,-0.78125 z m 72.498051,0.773438 a 52,51.999996 0 0 1 1.05468,1.0625 c -0.34453,-0.361041 -0.69973,-0.711422 -1.05468,-1.0625 z m -76.128911,3.050781 c -0.194288,0.226382 -0.381933,0.457836 -0.572265,0.6875 a 52,51.999996 0 0 1 0.572265,-0.6875 z m 79.984371,1.199219 a 52,51.999996 0 0 1 0.3711,0.455078 c -0.12132,-0.153641 -0.24807,-0.302875 -0.3711,-0.455078 z m -83.214839,2.982421 c -0.129187,0.186004 -0.254136,0.374799 -0.38086,0.5625 a 52,51.999996 0 0 1 0.38086,-0.5625 z m 86.458989,1.490235 a 52,51.999996 0 0 1 0.0703,0.117187 c -0.0245,-0.0383 -0.0457,-0.07896 -0.0703,-0.117187 z m -85.443364,2.130859 c 0.384272,-0.02716 0.781895,0.05656 1.140625,0.263672 0.95657,0.5523 1.282761,1.775822 0.730468,2.732422 -0.552195,0.9565 -1.773855,1.284722 -2.730468,0.732422 C 20.47507,41.180122 20.147025,39.9565 20.699219,39 c 0.345183,-0.597875 0.951343,-0.950821 1.591797,-0.996094 z m 83.417964,0 c 0.64044,0.04526 1.24663,0.398281 1.5918,0.996094 0.55228,0.9566 0.22416,2.180122 -0.73242,2.732422 -0.95659,0.5523 -2.17819,0.224178 -2.73047,-0.732422 -0.55229,-0.9565 -0.22612,-2.180122 0.73047,-2.732422 0.35872,-0.207112 0.75636,-0.29083 1.14062,-0.263672 z m -87.17773,0.794922 c -0.104962,0.189483 -0.20809,0.379701 -0.310547,0.570313 a 52,51.999996 0 0 1 0.310547,-0.570313 z m 91.77344,1.544922 a 52,51.999996 0 0 1 0.12109,0.25 c -0.0417,-0.08274 -0.079,-0.167484 -0.12109,-0.25 z m -94.02344,3.044922 c -0.105395,0.245025 -0.21099,0.489827 -0.3125,0.736328 a 52,51.999996 0 0 1 0.3125,-0.736328 z m 96.10742,1.595703 a 52,51.999996 0 0 1 0.21094,0.576172 c -0.0723,-0.191292 -0.13641,-0.385762 -0.21094,-0.576172 z m -97.845701,3.044922 c -0.124534,0.388941 -0.249943,0.778107 -0.365235,1.169922 a 52,51.999996 0 0 1 0.365235,-1.169922 z m 99.458981,1.746094 a 52,51.999996 0 0 1 0.25,0.964843 c -0.0844,-0.321408 -0.15952,-0.645204 -0.25,-0.964843 z m -100.726559,2.96289 c -0.124214,0.566475 -0.25003,1.132071 -0.355469,1.703125 a 52,51.999996 0 0 1 0.355469,-1.703125 z m 101.869139,1.978516 a 52,51.999996 0 0 1 0.20313,1.292969 c -0.0667,-0.431215 -0.1257,-0.863843 -0.20313,-1.292969 z M 12.652344,71.990234 c 0.06667,0.431215 0.125697,0.863843 0.203125,1.292969 a 52,51.999996 0 0 1 -0.203125,-1.292969 z m 102.427736,1.56836 a 52,51.999996 0 0 1 -0.35547,1.703125 c 0.12427,-0.56644 0.24999,-1.132096 0.35547,-1.703125 z M 13.748047,77.259766 c 0.08437,0.321408 0.159526,0.645204 0.25,0.964843 a 52,51.999996 0 0 1 -0.25,-0.964843 z m 100.083983,1.505859 a 52,51.999996 0 0 1 -0.39062,1.25 c 0.1336,-0.415759 0.26758,-0.830959 0.39062,-1.25 z m -98.431639,3.673828 c 0.07228,0.191292 0.136406,0.385762 0.210937,0.576172 a 52,51.999996 0 0 1 -0.210937,-0.576172 z m 96.642579,1.402344 a 52,51.999996 0 0 1 -0.33985,0.802734 c 0.11504,-0.266954 0.22941,-0.534033 0.33985,-0.802734 z m -89.472658,2.162109 c 0.640421,0.04527 1.246613,0.398219 1.591797,0.996094 0.552316,0.9565 0.226146,2.180122 -0.730468,2.732422 C 22.47511,90.284722 21.251538,89.9565 20.699219,89 c -0.552294,-0.9566 -0.224193,-2.180122 0.732422,-2.732422 0.358698,-0.207112 0.754419,-0.290835 1.138671,-0.263672 z m 82.859378,0 c 0.38426,-0.02716 0.77994,0.05656 1.13867,0.263672 0.95659,0.5523 1.28464,1.775922 0.73242,2.732422 -0.5523,0.9566 -1.77582,1.284722 -2.73242,0.732422 -0.9566,-0.5523 -1.28277,-1.775822 -0.73047,-2.732422 0.34513,-0.597813 0.95136,-0.95083 1.5918,-0.996094 z M 17.574219,87.40625 c 0.04165,0.08274 0.07899,0.167484 0.121093,0.25 a 52,51.999996 0 0 1 -0.121093,-0.25 z m 92.205081,1.224609 a 52,51.999996 0 0 1 -0.31055,0.570313 c 0.1049,-0.18952 0.20815,-0.37967 0.31055,-0.570313 z m -89.583988,3.378907 c 0.02452,0.0383 0.04569,0.07896 0.07031,0.117187 a 52,51.999996 0 0 1 -0.07031,-0.117187 z m 86.910158,1.044922 a 52,51.999996 0 0 1 -0.38086,0.5625 c 0.12919,-0.186004 0.25414,-0.374799 0.38086,-0.5625 z m -83.964845,3.091796 c 0.118556,0.150117 0.241138,0.296571 0.361328,0.445313 a 52,51.999996 0 0 1 -0.361328,-0.445313 z m 80.925785,0.964844 a 52,51.999996 0 0 1 -0.57227,0.6875 c 0.19429,-0.226382 0.38193,-0.457836 0.57227,-0.6875 z m -77.720707,2.716797 c 0.326225,0.341065 0.662504,0.671745 0.998047,1.003905 A 52,51.999996 0 0 1 26.345703,99.828125 Z M 100.6582,100.8418 a 52,51.999996 0 0 1 -0.794919,0.78125 c 0.269359,-0.25614 0.531199,-0.51951 0.794919,-0.78125 z m -70.927731,2.21289 c 0.590966,0.51596 1.195665,1.01776 1.810547,1.50781 a 52,51.999996 0 0 1 -1.810547,-1.50781 z m 67.205078,1.14062 a 52,51.999996 0 0 1 -1.076172,0.86914 c 0.364793,-0.28245 0.719278,-0.5773 1.076172,-0.86914 z M 64,110 c 1.104459,-1e-4 2.000006,0.8954 2,2 -1.1e-5,1.1045 -0.895536,1.9999 -2,2 -1.104589,0 -2.000006,-0.8954 -2,-2 6e-6,-1.1045 0.89541,-2 2,-2 z m -16.087891,3.41406 c 0.354771,0.11595 0.705478,0.24331 1.0625,0.35156 a 52,51.999996 0 0 1 -1.0625,-0.35156 z m 30.714844,0.45313 a 52,51.999996 0 0 1 -1.478515,0.4082 c 0.494198,-0.13065 0.988081,-0.26293 1.478515,-0.4082 z m -25.416015,0.97851 c 0.21738,0.0465 0.432462,0.10284 0.65039,0.14649 a 52,51.999996 0 0 1 -0.65039,-0.14649 z m 20.128906,0.28516 a 52,51.999996 0 0 1 -0.980469,0.17187 c 0.327544,-0.0541 0.654137,-0.1115 0.980469,-0.17187 z M 58.625,115.71289 c 0.08418,0.009 0.167729,0.0228 0.251953,0.0312 A 52,51.999996 0 0 1 58.625,115.71289 Z m 9.410156,0.11328 a 52,51.999996 0 0 1 -0.787109,0.0586 c 0.262849,-0.0167 0.52478,-0.0379 0.787109,-0.0586 z"
         style="opacity:1;fill:#e6e6e6;fill-opacity:1;stroke:none;stroke-width:1.75;stroke-linecap:round;stroke-linejoin:round;stroke-miterlimit:4;stroke-dasharray:none;stroke-dashoffset:0;stroke-opacity:1"
         inkscape:connector-curvature="0" />
      <path
         sodipodi:nodetypes="ccccccssccccssccccccc"
         inkscape:connector-curvature="0"
         id="path4485"
         d="m 48,1024.5197 -2,8 2,5 v 23 h -4 l -1,2 c 0,0 2,3 2,4 0,3 -1,4 -1,8 v 16 c 0,2 1,3 2,3 h 8 c 1,0 2,-1 2,-3 v -16 c 0,-4 -1,-5 -1,-8 0,-1 2,-4 2,-4 l -1,-2 h -4 v -23 l 2,-5 -2,-8 z"
         style="fill:#e6e6e6;fill-rule:evenodd;stroke:none;stroke-width:0.875px;stroke-linecap:butt;stroke-linejoin:miter;stroke-opacity:1" />
      <path
         id="path4488"
         transform="translate(0,994.51965)"
         d="M 87,30.265625 V 41 c 0,2.2159 -1.784,4 -4,4 h -6 c -2.216,0 -4,-1.7841 -4,-4 V 30.271484 A 12,11.999998 0 0 0 68,40 12,11.999998 0 0 0 68.06055,41.199219 C 68.680804,50.068538 76,51.169051 76,55 c 0,4 -4,29 -4,37 a 7.9999981,7.9999995 0 0 0 8,8 7.9999981,7.9999995 0 0 0 8,-8 c 0,-8 -4,-33 -4,-37 0,-3.852974 7.401601,-4.946276 7.947266,-13.957031 A 12,11.999998 0 0 0 92,40 12,11.999998 0 0 0 87,30.265625 Z M 80,86 a 6,6 0 0 1 6,6 6,6 0 0 1 -6,6 6,6 0 0 1 -6,-6 6,6 0 0 1 6,-6 z"
         style="opacity:1;fill:#e6e6e6;fill-opacity:1;stroke:none;stroke-width:1.74999952;stroke-linecap:round;stroke-linejoin:round;stroke-miterlimit:4;stroke-dasharray:none;stroke-dashoffset:0;stroke-opacity:1"
         inkscape:connector-curvature="0" />
      <rect
         ry="0.875"
         rx="0.875"
         y="1072.5197"
         x="49"
         height="19"
         width="2"
         id="rect4526"
         style="opacity:1;fill:#b3b3b3;fill-opacity:1;stroke:none;stroke-width:1.75;stroke-linecap:round;stroke-linejoin:round;stroke-miterlimit:4;stroke-dasharray:none;stroke-dashoffset:0;stroke-opacity:1" />
      <rect
         ry="0.875"
         rx="0.875"
         y="1072.5197"
         x="45"
         height="19"
         width="2"
         id="rect4528"
         style="opacity:1;fill:#b3b3b3;fill-opacity:1;stroke:none;stroke-width:1.75;stroke-linecap:round;stroke-linejoin:round;stroke-miterlimit:4;stroke-dasharray:none;stroke-dashoffset:0;stroke-opacity:1" />
      <rect
         ry="0.875"
         rx="0.875"
         y="1072.5197"
         x="53"
         height="19"
         width="2"
         id="rect4530"
         style="opacity:1;fill:#b3b3b3;fill-opacity:1;stroke:none;stroke-width:1.75;stroke-linecap:round;stroke-linejoin:round;stroke-miterlimit:4;stroke-dasharray:none;stroke-dashoffset:0;stroke-opacity:1" />
      <path
         sodipodi:nodetypes="sccss"
         inkscape:connector-curvature="0"
         id="path4535"
         d="m 78,1051.5197 c -1.754116,14.0329 -3,19 -3.5,29.1933 2.5,-3.1933 8.5,-3.1933 11.138672,-0.066 C 85,1070.5197 83.754116,1065.5526 82,1051.5197 c -0.248069,-1.9846 -3.751931,-1.9846 -4,0 z"
         style="opacity:1;fill:#999999;fill-opacity:1;stroke:none;stroke-width:1.74999952;stroke-linecap:round;stroke-linejoin:round;stroke-miterlimit:4;stroke-dasharray:none;stroke-dashoffset:0;stroke-opacity:1" />
    </g>
  </g>
  <g
     inkscape:groupmode="layer"
     id="layer2"
     inkscape:label="Layer 2">
    <g
       id="g5017"
       transform="matrix(0.25619037,0,0,0.25619037,844.6867,349.37353)"
       style="stroke-width:3.90334725">
      <path
         id="path4994"
         d="m 349.347,225.041 -62.676,-62.676 153.6,-153.6 c 11.476,-11.476 30.897,-11.476 42.372,0 l 20.303,20.303 c 11.476,11.476 11.476,30.014 0,41.49 z m -61.793,61.793 -62.676,-62.676 24.717,-24.717 62.676,62.676 z"
         inkscape:connector-curvature="0"
         style="fill:#75b93f;stroke-width:3.90334725" />
      <path
         id="path4996"
         d="m 312.271,262.117 c -0.883,-9.71 -0.883,-23.834 6.179,-30.897 7.062,-7.062 21.186,-7.062 30.897,-6.179 l -62.676,-62.676 c 0.883,9.71 0.883,23.834 -6.179,30.897 -7.062,7.062 -21.186,7.062 -30.897,6.179 z"
         inkscape:connector-curvature="0"
         style="fill:#517f2c;stroke-width:3.90334725" />
      <path
         id="path4998"
         d="m 3.305,508.407 c -3.531,-3.531 -4.414,-9.71 -1.766,-14.124 l 14.124,-23.835 19.421,-17.655 24.717,23.835 -19.421,17.655 -23.834,14.124 c -4.413,4.413 -9.71,3.531 -13.241,0"
         inkscape:connector-curvature="0"
         style="fill:#c3c7cb;stroke-width:3.90334725" />
      <path
         id="path5000"
         d="M 59.802,476.627 35.085,451.91 244.299,242.696 l 24.717,24.717 z"
         inkscape:connector-curvature="0"
         style="fill:#e0e0e0;stroke-width:3.90334725" />
      <path
         id="path5002"
         d="m 344.05,176.489 c -2.648,0 -4.414,-0.883 -6.179,-2.648 -3.531,-3.531 -3.531,-8.828 0,-12.359 L 461.457,37.896 c 3.531,-3.531 8.828,-3.531 12.359,0 3.531,3.531 3.531,8.828 0,12.359 L 350.229,173.841 c -1.765,1.766 -3.531,2.648 -6.179,2.648"
         inkscape:connector-curvature="0"
         style="fill:#517f2c;stroke-width:3.90334725" />
    </g>
    <g
       id="g5042"
       transform="matrix(0.25619037,0,0,0.25619037,40.205787,349.44374)"
       style="stroke-width:3.90334725">
      <path
         id="path5019"
         d="m 292.668,255.503 56.497,-56.497 c 30.014,-30.014 61.793,-55.614 99.752,-75.034 h -0.883 c -19.421,0 -38.841,-9.71 -50.317,-27.366 -7.062,-10.593 -10.593,-22.069 -10.593,-33.545 l -0.883,-0.883 c -19.421,37.959 -45.021,69.738 -75.034,99.752 l -56.497,56.497 z m -75.034,0 L 161.137,312 c -23.834,23.834 -66.207,52.966 -99.752,75.034 l 0.883,0.883 c 19.421,0 38.841,9.71 51.2,27.366 7.062,9.71 9.71,22.069 10.593,33.545 l 0.883,0.883 c 22.069,-33.545 51.2,-75.917 75.034,-99.752 l 56.497,-56.497 z"
         inkscape:connector-curvature="0"
         style="fill:#c3c7cb;stroke-width:3.90334725" />
      <path
         id="path5021"
         d="m 124.062,62.179 c -0.883,20.303 -10.593,38.841 -28.248,51.2 -9.71,7.062 -21.186,10.593 -33.545,10.593 l -0.883,0.883 c 37.959,19.421 69.738,45.021 99.752,75.034 l 150.069,150.069 c 23.834,23.835 52.966,66.207 75.034,99.752 l 0.883,-0.883 c 0,-19.421 9.71,-38.841 27.366,-51.2 9.71,-7.062 22.069,-9.71 33.545,-10.593 l 0.883,-0.883 c -33.545,-22.069 -75.917,-51.2 -99.752,-75.034 l -150.07,-150.07 c -30.014,-29.131 -54.731,-60.91 -75.034,-98.868"
         inkscape:connector-curvature="0"
         style="fill:#e0e0e0;stroke-width:3.90334725" />
      <path
         id="path5023"
         d="m 55.206,0.385 27.366,47.669 -1.766,4.414 C 73.744,67.475 57.855,76.303 41.965,75.42 H 37.551 L 10.186,28.634 c -17.655,26.483 -12.359,64.441 15.89,84.745 20.303,15.007 48.552,15.007 69.738,0.883 C 129.359,91.31 132.007,46.29 105.524,18.924 91.399,4.799 73.744,-1.38 55.206,0.385 m 399.89,510.235 -27.366,-47.669 1.766,-4.414 c 7.062,-15.007 22.952,-23.835 38.841,-22.952 h 4.414 l 26.483,46.786 c 17.655,-26.483 12.359,-64.441 -15.89,-84.745 -20.303,-15.007 -48.552,-15.007 -69.738,-0.883 -33.545,22.952 -36.193,67.972 -9.71,95.338 15.007,14.125 33.545,20.304 51.2,18.539"
         inkscape:connector-curvature="0"
         style="fill:#c3c7cb;stroke-width:3.90334725" />
      <path
         id="path5025"
         d="m 510.71,55.999 -47.669,27.366 -4.414,-1.766 C 443.62,74.537 434.792,58.647 436.558,42.758 v -4.414 l 46.786,-26.483 c -26.483,-17.655 -64.441,-12.359 -84.745,15.89 -15.007,20.303 -15.007,48.552 -0.883,69.738 22.952,33.545 67.972,36.193 95.338,9.71 13.242,-15.007 19.421,-33.545 17.656,-51.2 m -510.235,399.89 47.669,-27.366 4.414,1.766 c 15.007,7.062 23.834,22.952 22.952,38.841 v 4.414 l -46.786,26.483 c 26.483,17.655 64.441,12.359 84.745,-15.89 15.007,-20.303 15.007,-48.552 0.883,-69.738 C 91.4,380.854 46.38,378.206 19.014,404.689 4.006,418.813 -1.29,437.351 0.475,455.889 m 128,-114.759 14.124,14.124 c 1.766,1.766 4.414,2.648 6.179,2.648 1.765,0 4.414,-0.883 6.179,-2.648 3.531,-3.531 3.531,-8.828 0,-12.359 l -13.241,-13.241 c -4.414,3.531 -8.828,7.062 -14.124,10.593 l 0.883,0.883 m -28.248,22.069 17.655,17.655 c 1.766,1.766 4.414,2.648 6.179,2.648 2.648,0 4.414,-0.883 6.179,-2.648 3.531,-3.531 3.531,-8.828 0,-12.359 l -16.772,-16.772 c -4.414,3.531 -9.71,7.062 -14.124,10.593 0,0 0.883,0 0.883,0.883"
         inkscape:connector-curvature="0"
         style="fill:#e0e0e0;stroke-width:3.90334725" />
      <path
         id="path5027"
         d="m 342.986,355.254 -13.241,13.241 c 3.531,4.414 7.062,8.828 10.593,14.124 0,0 0.883,0 0.883,-0.883 l 14.124,-14.124 c 3.531,-3.531 3.531,-8.828 0,-12.359 -3.532,-3.53 -8.828,-3.53 -12.359,0.001 m 24.717,25.6 -16.772,16.772 c 3.531,4.414 7.062,9.71 10.593,14.124 l 0.883,-0.883 17.655,-17.655 c 3.531,-3.531 3.531,-8.828 0,-12.359 -3.532,-3.53 -8.828,-3.53 -12.359,10e-4"
         inkscape:connector-curvature="0"
         style="fill:#c3c7cb;stroke-width:3.90334725" />
    </g>
    <g
       id="g5070"
       transform="matrix(0.25619037,0,0,0.25619037,643.49163,349.31609)"
       style="stroke-width:3.90334725">
      <path
         id="path5044"
         d="m 334.136,23.905 c 51.511,0 99.657,33.415 113.43,86.399 C 403.384,93.285 337.441,90.195 302.757,99.465 V 75.56 l 0.036,-51.655 z"
         inkscape:connector-curvature="0"
         style="fill:#bac6cc;stroke-width:3.90334725" />
      <path
         id="path5046"
         d="M 211.411,123.898 H 278.36 V 255.485 H 211.411 Z"
         inkscape:connector-curvature="0"
         style="fill:#cfdce5;stroke-width:3.90334725" />
      <path
         id="path5048"
         d="m 211.411,117.91 h 66.949 v 28.205 H 211.411 Z M 191.923,7.557 V 116.76 l -3.423,0.635 c -4.055,-11.222 -17.889,-19.486 -34.358,-19.486 -16.366,0 -30.134,8.168 -34.269,19.294 l -1.279,-0.443 V 7.557 l 1.395,-0.479 c 4.262,10.983 17.929,19.007 34.151,19.007 16.494,0 30.367,-8.3 34.385,-19.558 z"
         inkscape:connector-curvature="0"
         style="fill:#bac6cc;stroke-width:3.90334725" />
      <path
         id="path5050"
         d="M 121.263,123.898 H 72.971 a 8.537,8.537 0 0 1 -8.537,-8.537 V 8.537 A 8.537,8.537 0 0 1 72.971,0 h 48.292 z M 296.608,0 a 7.398,7.398 0 0 1 7.399,7.406 l -0.017,16.499 -0.036,51.655 v 40.938 a 7.4,7.4 0 0 1 -7.399,7.399 H 278.36 v -0.012 h -66.949 v 0.012 h -16.83 c -4.084,0 -7.397,-3.301 -7.399,-7.385 -0.017,-22.056 -0.011,-87.071 0.004,-109.127 A 7.391,7.391 0 0 1 194.585,0 Z"
         inkscape:connector-curvature="0"
         style="fill:#cfdce5;stroke-width:3.90334725" />
      <path
         id="path5052"
         d="m 289.14,261.21 v 206.537 c 0,24.756 -20.432,44.828 -45.319,44.242 -24.157,-0.575 -43.188,-20.899 -43.188,-45.068 V 261.21 a 7.518,7.518 0 0 1 7.521,-7.521 h 73.465 a 7.519,7.519 0 0 1 7.521,7.521 z"
         inkscape:connector-curvature="0"
         style="fill:#ff6f52;stroke-width:3.90334725" />
      <path
         id="path5054"
         d="M 216.801,466.92 V 261.21 a 7.518,7.518 0 0 1 7.521,-7.521 h -16.169 a 7.518,7.518 0 0 0 -7.521,7.521 v 205.71 c 0,24.169 19.031,44.493 43.188,45.068 a 44.399,44.399 0 0 0 9.19,-0.737 c -20.743,-3.89 -36.209,-22.544 -36.209,-44.331 z"
         inkscape:connector-curvature="0"
         style="fill:#e25749;stroke-width:3.90334725" />
    </g>
    <g
       id="g5095"
       transform="matrix(0.25619037,0,0,0.25619037,442.35388,349.31616)"
       style="stroke-width:3.90334725">
      <path
         id="path5072"
         d="m 503.322,177.898 -8.678,-77.234 c 0,-10.414 -7.81,-18.224 -18.224,-18.224 H 208.271 v 90.251 c 0,28.637 19.959,53.803 47.729,59.878 42.522,9.546 87.647,9.546 130.169,0 l 47.729,-11.281 v 137.98 c 0,12.149 -4.339,23.431 -13.017,31.241 l -3.471,3.471 c -6.075,6.075 -9.546,14.753 -9.546,23.431 v 5.207 c 0,8.678 6.942,15.62 15.62,15.62 h 71.16 c 9.546,0 17.356,-7.81 17.356,-17.356 V 308.068 Z"
         inkscape:connector-curvature="0"
         style="fill:#f4ba48;stroke-width:3.90334725" />
      <path
         id="path5074"
         d="M 104.136,160.542 H 8.678 C 3.471,160.542 0,157.071 0,151.864 c 0,-5.207 3.471,-8.678 8.678,-8.678 h 95.458 c 5.207,0 8.678,3.471 8.678,8.678 0,5.207 -3.472,8.678 -8.678,8.678"
         inkscape:connector-curvature="0"
         style="fill:#c3c7cb;stroke-width:3.90334725" />
      <path
         id="path5076"
         d="m 173.559,195.254 h -43.39 c -14.753,0 -26.034,-11.281 -26.034,-26.034 v -34.712 c 0,-14.753 11.281,-26.034 26.034,-26.034 h 43.39 z m 0,69.424 h 34.712 V 73.763 h -34.712 z"
         inkscape:connector-curvature="0"
         style="fill:#565656;stroke-width:3.90334725" />
      <path
         id="path5078"
         d="m 225.627,438.237 h -69.424 l 8.678,-17.356 V 299.39 l -17.356,-34.712 h 86.78 l -17.356,34.712 v 121.492 z"
         inkscape:connector-curvature="0"
         style="fill:#c3c7cb;stroke-width:3.90334725" />
      <path
         id="path5080"
         d="m 451.254,125.831 h -52.068 c -5.207,0 -8.678,-3.471 -8.678,-8.678 0,-5.207 3.471,-8.678 8.678,-8.678 h 52.068 c 5.207,0 8.678,3.471 8.678,8.678 0,5.207 -3.471,8.678 -8.678,8.678 m 0,34.711 h -52.068 c -5.207,0 -8.678,-3.471 -8.678,-8.678 0,-5.207 3.471,-8.678 8.678,-8.678 h 52.068 c 5.207,0 8.678,3.471 8.678,8.678 0,5.207 -3.471,8.678 -8.678,8.678 m -17.356,60.746 -43.39,10.414 17.356,59.01 h 26.034 z M 251.661,117.153 v 69.424 h 69.424 c 0,-34.713 -34.712,-69.424 -69.424,-69.424 M 477.288,342.78 c -5.207,0 -8.678,3.471 -8.678,8.678 0,5.207 3.471,8.678 8.678,8.678 H 512 V 342.78 Z m 0,34.712 c -5.207,0 -8.678,3.471 -8.678,8.678 0,5.207 3.471,8.678 8.678,8.678 H 512 v -17.356 z"
         inkscape:connector-curvature="0"
         style="fill:#565656;stroke-width:3.90334725" />
    </g>
    <g
       id="g5120"
       transform="matrix(0.25619037,0,0,0.25619037,849.52154,184.41668)"
       style="stroke-width:3.90334725">
      <path
         id="path5097"
         d="M 365.69,53.798 H 161.822 C 157.469,30.539 175.314,9.041 198.971,9.041 h 126.965 c 18.195,0 33.809,12.962 37.149,30.843 z"
         inkscape:connector-curvature="0"
         style="fill:#fcd577;stroke-width:3.90334725" />
      <g
         id="g5103"
         style="fill:#bac6cc;stroke-width:3.90334725">
        <path
           id="path5099"
           d="M 417.857,512 H 272.162 c -19.555,0 -36.359,-13.951 -39.96,-33.171 L 152.933,55.461 c -2.573,-13.738 1.073,-27.784 9.999,-38.538 A 46.71,46.71 0 0 1 198.974,0 h 126.963 c 22.531,0 41.893,16.074 46.042,38.22 l 80.825,431.684 a 35.453,35.453 0 0 1 -7.59,29.251 A 35.457,35.457 0 0 1 417.857,512 Z M 182.813,116.771 249.979,475.5 c 1.997,10.67 11.327,18.414 22.181,18.414 h 145.696 a 17.42,17.42 0 0 0 13.439,-6.31 17.408,17.408 0 0 0 3.729,-14.37 L 354.2,41.549 C 351.655,27.954 339.767,18.086 325.937,18.086 H 198.974 a 28.667,28.667 0 0 0 -22.124,10.389 28.67,28.67 0 0 0 -6.138,23.658 z"
           inkscape:connector-curvature="0"
           style="stroke-width:3.90334725" />
        <path
           id="path5101"
           d="M 161.823,44.757 H 363.087 V 62.843 H 161.823 Z"
           inkscape:connector-curvature="0"
           style="stroke-width:3.90334725" />
      </g>
      <path
         id="path5105"
         d="m 385.574,112.92 a 9.04,9.04 0 0 0 -7.243,-3.628 h -203.87 a 9.04,9.04 0 0 0 -8.673,6.483 L 59.784,475.005 c -2.597,8.806 -0.934,18.073 4.561,25.426 C 69.843,507.784 78.26,512 87.441,512 h 155.284 c 17,0 32.231,-11.386 37.042,-27.69 L 387.004,120.895 a 9.042,9.042 0 0 0 -1.43,-7.975 z M 117.932,341.855 136.167,280.06 H 321.18 l -18.235,61.795 z m 179.676,18.087 -18.235,61.795 H 94.361 l 18.235,-61.795 z M 141.503,261.976 159.738,200.183 H 344.75 l -18.233,61.793 z M 262.42,479.192 c -2.557,8.668 -10.656,14.722 -19.695,14.722 H 87.442 a 10.66,10.66 0 0 1 -8.61,-4.313 10.658,10.658 0 0 1 -1.7,-9.478 l 11.892,-40.3 H 274.038 Z M 350.087,182.096 H 165.074 l 16.146,-54.718 h 185.013 z"
         inkscape:connector-curvature="0"
         style="fill:#cfdce5;stroke-width:3.90334725" />
    </g>
    <g
       id="g5211"
       transform="matrix(0.25619037,0,0,0.25619037,662.90313,186.05629)"
       style="stroke-width:3.90334725">
      <path
         id="path5122"
         d="m 487.244,190.4 -96,8 v -37.6 l 96,8 z"
         inkscape:connector-curvature="0"
         style="fill:#7c999b;stroke-width:3.90334725" />
      <g
         id="g5128"
         style="fill:#063a5e;stroke-width:3.90334725">
        <path
           id="path5124"
           d="m 227.244,490.4 h -92 v -24 h 92 c 36.8,0 68,-28 68,-64.8 V 274.4 h 24 v 127.2 c 0,50.4 -41.6,88.8 -92,88.8 z"
           inkscape:connector-curvature="0"
           style="stroke-width:3.90334725" />
        <path
           id="path5126"
           d="m 319.244,378.4 h -24 v -120 c 0,-49.6 40,-90.4 88,-90.4 v 23.2 c -32,0 -64,29.6 -64,66.4 z m -125.6,-352 c 0,10.4 0.8,16 -9.6,16 h -160 c -9.6,0 -8.8,-5.6 -8.8,-16 0,-10.4 8,-16 18.4,-16 h 141.6 c 10.4,0 18.4,5.6 18.4,16 z"
           inkscape:connector-curvature="0"
           style="stroke-width:3.90334725" />
      </g>
      <path
         id="path5132"
         d="m 87.244,50.4 h 32 v 104 h -32 z"
         inkscape:connector-curvature="0"
         style="fill:#94b1b2;stroke-width:3.90334725" />
      <path
         id="path5136"
         d="m 167.244,464 c 0,6.4 -4.8,10.4 -11.2,10.4 h -111.2 c -6.4,0 -13.6,-4 -13.6,-10.4 V 166.4 c 0,-6.4 7.2,-12 13.6,-12 h 111.2 c 6.4,0 11.2,5.6 11.2,12 z"
         inkscape:connector-curvature="0"
         style="fill:#36bee8;stroke-width:3.90334725" />
      <path
         id="path5138"
         d="m 47.244,154.4 h 108.8 c 6.4,0 11.2,5.6 11.2,12 V 464 c 0,6.4 -4.8,10.4 -11.2,10.4 h -108.8"
         inkscape:connector-curvature="0"
         style="fill:#1b9cce;stroke-width:3.90334725" />
      <g
         id="g5144"
         style="fill:#1387ba;stroke-width:3.90334725">
        <path
           id="path5140"
           d="m 47.244,154.4 h 108.8 c 6.4,0 11.2,5.6 11.2,12 V 464 c 0,6.4 -4,11.2 -10.4,11.2"
           inkscape:connector-curvature="0"
           style="stroke-width:3.90334725" />
        <path
           id="path5142"
           d="m 190.444,482.4 c 0,10.4 0.8,16 -8.8,16 h -161.6 c -10.4,0 -8.8,-5.6 -8.8,-16 0,-10.4 8,-16 18.4,-16 h 143.2 c 9.6,0 17.6,5.6 17.6,16 z"
           inkscape:connector-curvature="0"
           style="stroke-width:3.90334725" />
      </g>
      <path
         id="path5146"
         d="m 190.444,481.6 c 0,10.4 0.8,16.8 -8.8,16.8 h -161.6 c -10.4,0 -8.8,-8 -8.8,-17.6 m 164.8,-326.4 c 0,4 -3.2,8 -8,8 h -135.2 c -4,0 -8,-4 -8,-8 0,-4 3.2,-8 8,-8 h 134.4 c 4.8,0 8.8,4 8.8,8 z"
         inkscape:connector-curvature="0"
         style="fill:#1f6899;stroke-width:3.90334725" />
      <path
         id="path5168"
         d="m 127.244,46.4 c 0,12.8 -11.2,23.2 -24,23.2 -12.8,0 -24,-10.4 -24,-23.2 v -32 c 0,-12.8 11.2,-13.6 24,-13.6 12.8,0 24,1.6 24,13.6 z"
         inkscape:connector-curvature="0"
         style="fill:#1387ba;stroke-width:3.90334725" />
      <circle
         id="circle5172"
         r="28.799999"
         cy="180"
         cx="398.444"
         style="fill:#94b1b2;stroke-width:3.90334725" />
      <path
         id="path5174"
         d="m 428.044,180 c 0,16 -12.8,28.8 -28.8,28.8 -16,0 -28.8,-12.8 -28.8,-28.8"
         inkscape:connector-curvature="0"
         style="fill:#7c999b;stroke-width:3.90334725" />
    </g>
    <g
       id="g5272"
       transform="matrix(0.25619037,0,0,0.25619037,856.72669,19.51701)"
       style="stroke-width:3.90334725">
      <path
         id="path5213"
         d="M 282.483,225.103 H 88.276 a 8.829,8.829 0 0 0 -8.828,8.828 v 194.207 a 8.829,8.829 0 0 0 8.828,8.828 h 194.207 a 8.829,8.829 0 0 0 8.828,-8.828 V 233.931 a 8.83,8.83 0 0 0 -8.828,-8.828 z"
         inkscape:connector-curvature="0"
         style="fill:#ebd2af;stroke-width:3.90334725" />
      <path
         id="path5215"
         d="M 105.931,251.586 H 264.828 V 410.483 H 105.931 Z"
         inkscape:connector-curvature="0"
         style="fill:#dec3a1;stroke-width:3.90334725" />
      <path
         id="path5217"
         d="m 105.931,278.069 h 158.897 v 17.655 H 105.931 Z m 0,88.276 H 264.828 V 384 H 105.931 Z m 0,-44.138 h 158.897 v 17.655 H 105.931 Z"
         inkscape:connector-curvature="0"
         style="fill:#d2b493;stroke-width:3.90334725" />
      <path
         id="path5219"
         d="M 291.31,216.276 V 22.069 a 8.829,8.829 0 0 0 -8.828,-8.828 H 88.276 a 8.829,8.829 0 0 0 -8.828,8.828 v 194.207 a 8.829,8.829 0 0 0 8.828,8.828 h 194.207 a 8.829,8.829 0 0 0 8.827,-8.828 z"
         inkscape:connector-curvature="0"
         style="fill:#f0dcbe;stroke-width:3.90334725" />
      <path
         id="path5221"
         d="M 105.931,39.724 H 264.828 V 198.621 H 105.931 Z"
         inkscape:connector-curvature="0"
         style="fill:#ebd2af;stroke-width:3.90334725" />
      <path
         id="path5223"
         d="m 220.69,39.724 h 17.655 V 198.621 H 220.69 Z m -88.276,0 h 17.655 v 158.897 h -17.655 z m 44.138,0 h 17.655 v 158.897 h -17.655 z"
         inkscape:connector-curvature="0"
         style="fill:#d2b493;stroke-width:3.90334725" />
      <circle
         id="circle5225"
         r="22.069"
         cy="476.69"
         cx="472.276"
         style="fill:#5b5d6e;stroke-width:3.90334725" />
      <path
         id="path5227"
         d="m 472.276,483.862 a 9.288,9.288 0 0 1 -9.107,-7.466 l -6.121,-30.603 h 30.455 l -6.121,30.603 a 9.286,9.286 0 0 1 -9.106,7.466 z"
         inkscape:connector-curvature="0"
         style="fill:#c7cfe2;stroke-width:3.90334725" />
      <path
         id="path5229"
         d="M 503.172,454.621 H 52.966 a 8.823,8.823 0 0 1 -8.828,-8.828 V 133.802 c 0,-7.078 -2.759,-13.732 -7.758,-18.733 L 2.586,81.276 a 8.824,8.824 0 0 1 0,-12.482 8.824,8.824 0 0 1 12.482,0 l 33.793,33.793 c 8.337,8.335 12.931,19.422 12.931,31.215 v 303.164 h 441.379 a 8.823,8.823 0 0 1 8.828,8.828 8.82,8.82 0 0 1 -8.827,8.827 z"
         inkscape:connector-curvature="0"
         style="fill:#a2aac2;stroke-width:3.90334725" />
      <circle
         id="circle5231"
         r="44.138"
         cy="454.621"
         cx="44.138"
         style="fill:#5b5d6e;stroke-width:3.90334725" />
      <g
         id="g5237"
         style="fill:#ff6464;stroke-width:3.90334725">
        <circle
           id="circle5233"
           r="26.483"
           cy="454.621"
           cx="44.138"
           style="stroke-width:3.90334725" />
        <path
           id="path5235"
           d="m 35.31,110.345 a 8.796,8.796 0 0 1 -6.241,-2.586 L 2.586,81.276 a 8.824,8.824 0 0 1 0,-12.482 8.824,8.824 0 0 1 12.482,0 l 26.483,26.483 a 8.825,8.825 0 0 1 0,12.483 8.799,8.799 0 0 1 -6.241,2.585 z"
           inkscape:connector-curvature="0"
           style="stroke-width:3.90334725" />
      </g>
      <path
         id="path5239"
         d="M 432.552,428.138 V 145.655 a 8.829,8.829 0 0 0 -8.828,-8.828 H 300.138 a 8.829,8.829 0 0 0 -8.828,8.828 v 282.483 a 8.829,8.829 0 0 0 8.828,8.828 h 123.586 a 8.829,8.829 0 0 0 8.828,-8.828 z"
         inkscape:connector-curvature="0"
         style="fill:#f0dcbe;stroke-width:3.90334725" />
      <path
         id="path5241"
         d="m 317.793,163.31 h 88.276 v 247.172 h -88.276 z"
         inkscape:connector-curvature="0"
         style="fill:#ebd2af;stroke-width:3.90334725" />
      <path
         id="path5243"
         d="m 317.793,189.793 h 88.276 v 17.655 h -88.276 z m 0,44.138 h 88.276 v 17.655 h -88.276 z m 0,44.138 h 88.276 v 17.655 h -88.276 z m 0,44.138 h 88.276 v 17.655 h -88.276 z m 0,44.138 h 88.276 V 384 h -88.276 z"
         inkscape:connector-curvature="0"
         style="fill:#d2b493;stroke-width:3.90334725" />
      <circle
         id="circle5245"
         r="8.8280001"
         cy="454.621"
         cx="44.138"
         style="fill:#d2555a;stroke-width:3.90334725" />
    </g>
    <g
       id="g5294"
       transform="matrix(0.25619037,0,0,0.25619037,652.54528,19.49797)"
       style="stroke-width:3.90334725">
      <path
         id="path5274"
         d="m 282.493,194.207 c 0,-15.007 -11.476,-26.483 -26.483,-26.483 -15.007,0 -26.483,11.476 -26.483,26.483 0,15.007 11.476,26.483 26.483,26.483 15.007,0 26.483,-11.476 26.483,-26.483"
         inkscape:connector-curvature="0"
         style="fill:#bc342e;stroke-width:3.90334725" />
      <path
         id="path5276"
         d="m 249.831,219.807 c -11.476,-2.648 -20.303,-13.241 -20.303,-25.6 0,-8.828 4.414,-16.772 11.476,-22.069 l -37.959,-30.897 -35.31,26.483 35.31,35.31 c -18.538,18.538 -32.662,43.255 -44.138,67.09 -24.717,55.614 -24.717,135.945 10.593,195.972 9.71,16.772 16.772,29.131 24.717,38.841 7.062,8.828 21.186,9.71 29.131,1.766 7.062,-7.062 7.945,-16.772 2.648,-24.717 -31.779,-49.435 -40.607,-76.8 -40.607,-128.883 0,-43.255 47.669,-110.344 64.442,-133.296 m 94.455,32.662 c -9.71,-17.655 -21.186,-35.31 -35.31,-49.434 l 35.31,-35.31 -35.31,-26.483 -37.076,30.896 c 6.179,5.297 10.593,13.241 10.593,22.069 0,12.359 -8.828,22.952 -20.303,25.6 17.655,22.952 64.441,90.041 64.441,133.297 0,52.083 -8.828,79.448 -41.49,128 -5.297,7.945 -4.414,18.538 2.648,24.717 7.945,7.945 22.069,7.945 29.131,-1.766 4.414,-5.297 9.71,-12.359 15.007,-20.303 51.2,-72.386 47.669,-165.076 12.359,-231.283"
         inkscape:connector-curvature="0"
         style="fill:#e15649;stroke-width:3.90334725" />
      <path
         id="path5278"
         d="m 247.182,97.103 c -5.297,0 -8.828,-3.531 -8.828,-8.828 V 70.621 c 0,-5.297 3.531,-8.828 8.828,-8.828 h 8.828 V 0 h -17.655 l -52.966,88.276 26.483,35.31 v 24.717 l 28.248,22.952 0.883,0.883 c 5.297,-2.648 8.828,-4.414 15.007,-4.414 V 97.103 Z"
         inkscape:connector-curvature="0"
         style="fill:#e0e0e0;stroke-width:3.90334725" />
      <path
         id="path5280"
         d="M 273.665,0 H 256.01 v 61.793 h 8.828 c 5.297,0 8.828,3.531 8.828,8.828 v 17.655 c 0,5.297 -3.531,8.828 -8.828,8.828 h -8.828 v 70.621 c 6.179,0 11.476,0.883 15.89,4.414 l 28.248,-23.834 v -24.717 l 26.483,-35.31 z"
         inkscape:connector-curvature="0"
         style="fill:#c3c7cb;stroke-width:3.90334725" />
    </g>
    <g
       id="g5316"
       transform="matrix(0.28360965,0,0,0.28360965,241.21616,349.31629)"
       style="stroke-width:3.90334725">
      <path
         id="path5296"
         d="m 7.5,248.75 c -4.142,0 -7.5,3.357 -7.5,7.5 0,4.143 3.358,7.5 7.5,7.5 h 40 v -15 z m 125,-42.5 h 300 v 55 h -300 z"
         inkscape:connector-curvature="0"
         style="fill:#98d9d5;stroke-width:3.90334725" />
      <path
         id="path5298"
         d="m 217.5,291.25 h -45 c -16.5,0 -30,-13.5 -30,-30 v -45 l -105,-20 v 145 l 210,-20 c 0,-16.5 -13.5,-30 -30,-30 z m 207.5,-85 v 85 c 0,4.143 3.357,7.5 7.5,7.5 4.143,0 7.5,-3.357 7.5,-7.5 v -85 z"
         inkscape:connector-curvature="0"
         style="fill:#c1e8e6;stroke-width:3.90334725" />
      <path
         id="path5300"
         d="m 27.5,321.25 v 15 c 0,16.5 13.5,30 30,30 h 375 c 16.5,0 30,-13.5 30,-30 v -15 z m 315,-225 -300.38,44.83 C 23.08,143.92 7.5,162 7.5,181.25 v 35 h 455 c 0,-66.27 -53.73,-120 -120,-120 z"
         inkscape:connector-curvature="0"
         style="fill:#f2484b;stroke-width:3.90334725" />
      <circle
         id="circle5302"
         r="15"
         cy="261.25"
         cx="90"
         style="fill:#185f8d;stroke-width:3.90334725" />
    </g>
    <g
       id="g5338"
       transform="matrix(0.25619037,0,0,0.25619037,242.43925,184.4168)"
       style="stroke-width:3.90334725">
      <path
         id="path5318"
         d="m 52.975,228.271 a 8.856,8.856 0 0 1 -7.804,-4.67 8.84,8.84 0 0 1 3.637,-11.953 L 278.326,89.307 c 4.334,-2.278 9.649,-0.653 11.953,3.637 2.295,4.299 0.662,9.657 -3.637,11.944 L 57.124,227.238 a 8.941,8.941 0 0 1 -4.149,1.033"
         inkscape:connector-curvature="0"
         style="fill:#c9b693;stroke-width:3.90334725" />
      <path
         id="path5320"
         d="m 397.241,203.034 c -14.274,0 -26.183,10.514 -28.381,24.62 C 357.031,303.721 291.248,361.93 211.861,361.93 124.106,361.93 52.964,290.788 52.964,203.033 H 0 v 141.241 c 0,58.5 47.431,105.931 105.931,105.931 h 300.138 c 58.5,0 105.931,-47.431 105.931,-105.931 v -112.55 c 0,-15.846 -12.844,-28.69 -28.69,-28.69 z"
         inkscape:connector-curvature="0"
         style="fill:#7383bf;stroke-width:3.90334725" />
      <path
         id="path5322"
         d="m 301.198,334.301 c 35.513,-24.214 60.778,-62.349 67.663,-106.646 2.198,-14.106 14.106,-24.62 28.381,-24.62 h 86.069 c 3.875,0 7.556,0.786 10.929,2.18 0.009,-0.733 0.106,-1.448 0.106,-2.18 0,-78.009 -63.232,-141.241 -141.241,-141.241 -78.009,0 -141.241,63.232 -141.241,141.241 -0.001,59.656 37.039,110.565 89.334,131.266"
         inkscape:connector-curvature="0"
         style="fill:#ece8d8;stroke-width:3.90334725" />
      <path
         id="path5324"
         d="m 353.104,273.655 c 0.335,0 0.662,-0.044 0.997,-0.053 7.089,-14.257 12.226,-29.652 14.76,-45.948 2.198,-14.106 14.106,-24.62 28.381,-24.62 h 26.483 c 0,-39 -31.62,-70.621 -70.621,-70.621 -39.001,0 -70.621,31.62 -70.621,70.621 0,39.001 31.621,70.621 70.621,70.621"
         inkscape:connector-curvature="0"
         style="fill:#c9b693;stroke-width:3.90334725" />
    </g>
    <g
       id="g5354"
       transform="matrix(0.25619037,0,0,0.25619037,40.097629,184.43589)"
       style="stroke-width:3.90334725">
      <path
         id="path5340"
         d="M 74.907,511.85 0.004,436.948 436.943,0 511.846,74.911 Z"
         inkscape:connector-curvature="0"
         style="fill:#e39700;stroke-width:3.90334725" />
      <path
         id="path5342"
         d="m 449.429,99.874 c 10.346,-10.346 10.346,-27.11 0,-37.455 -10.346,-10.337 -27.11,-10.337 -37.455,0 -10.337,10.346 -10.337,27.11 0,37.455 10.346,10.346 27.109,10.346 37.455,0 m -24.969,62.423 -18.723,-18.723 12.482,-12.483 18.724,18.724 z m -24.965,24.965 -18.723,-18.723 12.482,-12.482 18.723,18.723 z m -24.966,24.966 -18.732,-18.724 12.482,-12.482 18.732,18.723 z m -24.974,24.974 -18.724,-18.732 12.483,-12.483 18.723,18.732 z m -24.966,24.965 -37.455,-37.447 12.482,-12.482 37.456,37.447 z m -24.965,24.966 -18.732,-18.723 12.482,-12.482 18.732,18.723 z m -24.974,24.974 -18.723,-18.732 12.482,-12.482 18.723,18.732 z m -24.965,24.966 -18.724,-18.724 12.483,-12.482 18.723,18.723 z m -24.966,24.965 -18.733,-18.723 12.483,-12.483 18.732,18.724 z m -24.975,24.974 -37.446,-37.455 12.482,-12.483 37.447,37.456 z m -24.965,24.965 -18.723,-18.723 12.482,-12.482 18.723,18.723 z m -24.965,24.966 -18.723,-18.723 12.482,-12.482 18.723,18.723 z m -24.974,24.966 -18.724,-18.724 12.483,-12.482 18.723,18.724 z m -24.966,24.974 -18.723,-18.723 12.482,-12.483 18.724,18.724 z"
         inkscape:connector-curvature="0"
         style="fill:#efb754;stroke-width:3.90334725" />
    </g>
    <g
       id="g5382"
       transform="matrix(0.25619037,0,0,0.25619037,458.90625,30.020815)"
       style="stroke-width:3.90334725">
      <path
         id="path5356"
         d="m 258.316,230 20,-20 10,-160 L 254.5,0 215,165.77 241.473,276.869 Z m -57.936,79.88 14.616,0.021 H 215 l -14.609,-0.021 -11.864,-33.011 -7.882,33.082 19.75,-0.029 z"
         inkscape:connector-curvature="0"
         style="fill:#acabb1;stroke-width:3.90334725" />
      <circle
         id="circle5358"
         r="30"
         cy="370"
         cx="144.5"
         style="fill:#ffffff;stroke-width:3.90334725" />
      <path
         id="path5360"
         d="M 249.355,309.951 241.472,276.869 215,165.77 175.5,0 l -33.816,50 10,160 20,20 16.844,46.869 11.863,33.011 z M 230.5,275 c 0,8.284 -6.716,15 -15,15 -8.284,0 -15,-6.716 -15,-15 0,-8.284 6.716,-15 15,-15 8.284,0 15,6.716 15,15 z"
         inkscape:connector-curvature="0"
         style="fill:#dedde0;stroke-width:3.90334725" />
      <path
         id="path5362"
         d="m 285.5,310 c -12.475,0 -24.059,3.81 -33.656,10.325 l -2.455,-10.374 h -68.777 l -2.455,10.374 C 168.559,313.81 156.975,310 144.5,310 c -33.138,0 -60,26.863 -60,60 0,33.137 26.862,60 60,60 27.154,0 50.083,-18.043 57.482,-42.789 l 0.025,0.072 12.993,-36.421 12.992,36.421 0.025,-0.072 c 7.4,24.746 30.329,42.789 57.483,42.789 33.138,0 60,-26.863 60,-60 0,-33.137 -26.862,-60 -60,-60 z m -141,90 c -16.569,0 -30,-13.432 -30,-30 0,-16.568 13.431,-30 30,-30 16.569,0 30,13.432 30,30 0,16.568 -13.431,30 -30,30 z m 141,0 c -16.569,0 -30,-13.432 -30,-30 0,-16.568 13.431,-30 30,-30 16.569,0 30,13.432 30,30 0,16.568 -13.431,30 -30,30 z"
         inkscape:connector-curvature="0"
         style="fill:#ff9811;stroke-width:3.90334725" />
      <circle
         id="circle5364"
         r="30"
         cy="370"
         cx="285.5"
         style="fill:#ffffff;stroke-width:3.90334725" />
      <circle
         id="circle5366"
         r="15"
         cy="275"
         cx="215.5"
         style="fill:#ffffff;stroke-width:3.90334725" />
    </g>
    <g
       id="g5416"
       transform="matrix(0.25619037,0,0,0.25619037,244.24251,19.519025)"
       style="stroke-width:3.90334725">
      <path
         id="path5384"
         d="M 505.532,37.724 392.365,0 313.914,78.457 389.349,153.9 Z"
         inkscape:connector-curvature="0"
         style="fill:#ccd1d9;stroke-width:3.90334725" />
      <path
         id="path5386"
         d="M 482.908,30.178 374.271,138.814 389.349,153.9 505.532,37.724 Z"
         inkscape:connector-curvature="0"
         style="fill:#e6e9ed;stroke-width:3.90334725" />
      <path
         id="path5388"
         d="m 161.499,425.421 c 7.351,-22.03 14.288,-42.873 35.139,-63.717 L 407.162,151.197 398.1,69.715 316.618,60.661 45.753,331.517 c -33.272,33.28 -39.726,65.998 -39.28,87.592 0.531,25.904 11.312,51.231 29.585,69.497 l 0.008,0.016 c 12.305,12.296 27.085,20.358 41.616,22.671 16.539,2.625 31.999,-2.281 43.514,-13.781 24.413,-24.421 32.49,-48.655 40.303,-72.091 z"
         inkscape:connector-curvature="0"
         style="fill:#ed5564;stroke-width:3.90334725" />
      <path
         id="path5390"
         d="M 51.729,437.67 25.84,411.797 394.584,43.053 420.473,68.942 Z"
         inkscape:connector-curvature="0"
         style="fill:#ccd1d9;stroke-width:3.90334725" />
      <path
         id="path5392"
         d="m 78.041,352.846 -6.75,20.233 45.263,15.094 6.75,-20.235 z m 105.62,-45.264 -45.271,-15.093 -6.742,20.248 45.264,15.093 z m 15.086,-75.443 -6.75,20.242 45.272,15.085 6.75,-20.242 z m 53.607,-40.116 45.28,15.086 6.734,-20.242 -45.264,-15.085 z m 105.621,-45.263 6.749,-20.25 -45.263,-15.085 -6.749,20.241 z"
         inkscape:connector-curvature="0"
         style="fill:#aab2bc;stroke-width:3.90334725" />
      <path
         id="path5394"
         d="M 384.521,68.208 357.366,65.184 30.66,391.891 45.753,406.969 Z m 15.094,15.085 -338.777,338.768 15.093,15.077 326.7,-326.682 z"
         inkscape:connector-curvature="0"
         style="fill:#da4453;stroke-width:3.90334725" />
      <path
         id="path5396"
         d="m 6.473,419.109 c 0.531,25.904 11.312,51.231 29.585,69.497 l 0.008,0.016 c 12.305,12.296 27.085,20.358 41.616,22.671 16.539,2.625 31.999,-2.281 43.514,-13.781 5.406,-5.406 10.016,-10.812 13.992,-16.187 L 19.777,365.907 C 8.809,386.391 6.184,405.094 6.473,419.109 Z"
         inkscape:connector-curvature="0"
         style="fill:#434a54;stroke-width:3.90334725" />
      <path
         id="path5398"
         d="m 161.499,425.421 c 7.351,-22.03 14.288,-42.873 35.139,-63.717 L 407.162,151.197 398.1,69.715 l -6.781,-0.758 8.297,74.693 -210.517,210.508 c -20.851,20.858 -27.795,41.67 -35.147,63.732 -7.812,23.436 -15.882,47.653 -40.295,72.06 -11.523,11.53 -26.976,16.421 -43.522,13.78 -13.062,-2.062 -26.327,-8.797 -37.811,-19.062 a 104.252,104.252 0 0 0 3.734,3.938 l 0.008,0.016 c 12.305,12.296 27.085,20.358 41.616,22.671 16.539,2.625 31.999,-2.281 43.514,-13.781 24.413,-24.421 32.49,-48.655 40.303,-72.091 z"
         inkscape:connector-curvature="0"
         style="opacity:0.2;fill:#ffffff;stroke-width:3.90334725" />
    </g>
    <g
       id="g5456"
       transform="matrix(0.25619037,0,0,0.25619037,40.08072,19.519316)"
       style="stroke-width:3.90334725">
      <path
         id="path5418"
         d="m 48.249,212.776 c 8.265,-30.827 66.154,-74.029 77.716,-70.936 11.546,3.094 40.093,69.452 31.827,100.294 -8.265,30.828 -39.483,49.25 -69.732,41.14 -30.249,-8.11 -48.061,-39.67 -39.811,-70.498 z"
         inkscape:connector-curvature="0"
         style="fill:#e6e9ed;stroke-width:3.90334725" />
      <path
         id="path5420"
         d="m 81.935,316.883 a 10.62,10.62 0 0 1 -2.766,-0.375 c -5.687,-1.516 -9.077,-7.375 -7.546,-13.061 l 23.28,-86.921 c 1.531,-5.687 7.375,-9.062 13.062,-7.546 5.703,1.531 9.078,7.375 7.562,13.062 l -23.296,86.919 c -1.265,4.765 -5.577,7.922 -10.296,7.922 z"
         inkscape:connector-curvature="0"
         style="fill:#ccd1d9;stroke-width:3.90334725" />
      <path
         id="path5422"
         d="m 339.397,304.447 -61.154,18.842 -48.14,-156.245 61.17,-18.844 z"
         inkscape:connector-curvature="0"
         style="fill:#ed5564;stroke-width:3.90334725" />
      <path
         id="path5424"
         d="m 342.241,132.497 -163.105,50.249 1.546,-67.451 142.715,-43.952 z"
         inkscape:connector-curvature="0"
         style="fill:#434a54;stroke-width:3.90334725" />
      <path
         id="path5426"
         d="m 397.113,320.305 -81.028,-36.326 14.453,-32.234 35.015,-13.328 32.686,14.656 13.328,35 z m -52.825,-47.061 42.092,18.875 2.109,-4.719 -7.047,-18.484 -16.562,-7.422 -18.483,7.031 z"
         inkscape:connector-curvature="0"
         style="stroke-width:3.90334725" />
      <path
         id="path5428"
         d="m 466.783,122.373 c 3.391,1.531 4.922,5.531 3.391,8.921 l -59.107,131.825 c -1.516,3.391 -5.516,4.922 -8.922,3.391 l -49.231,-22.078 c -3.406,-1.531 -4.922,-5.516 -3.406,-8.922 l 59.106,-131.825 c 1.531,-3.391 5.516,-4.906 8.922,-3.391 z"
         inkscape:connector-curvature="0"
         style="fill:#a0d468;stroke-width:3.90334725" />
      <path
         id="path5430"
         d="m 382.864,254.244 c -1.469,0 -2.938,-0.312 -4.359,-0.937 -5.374,-2.406 -7.78,-8.719 -5.374,-14.094 l 42.248,-94.232 c 2.422,-5.375 8.734,-7.781 14.109,-5.375 5.375,2.406 7.766,8.718 5.359,14.093 l -42.25,94.232 a 10.665,10.665 0 0 1 -9.733,6.313 z"
         inkscape:connector-curvature="0"
         style="fill:#8cc153;stroke-width:3.90334725" />
      <path
         id="path5432"
         d="m 42.655,234.664 h 426.66 v 213.32 H 42.655 Z m 10.668,-127.99 h 405.32 v 21.328 H 53.323 Z"
         inkscape:connector-curvature="0"
         style="fill:#f6bb42;stroke-width:3.90334725" />
      <path
         id="path5434"
         d="M 127.996,319.992 H 63.998 c -5.906,0 -10.672,-4.766 -10.672,-10.656 0,-5.889 4.766,-10.67 10.672,-10.67 h 63.998 c 5.875,0 10.656,4.781 10.656,10.67 0,5.89 -4.781,10.656 -10.656,10.656 z m 319.991,-21.326 h -42.671 c -5.891,0 -10.672,-4.766 -10.672,-10.672 0,-5.891 4.781,-10.656 10.672,-10.656 h 42.671 a 10.65,10.65 0 0 1 10.656,10.656 c 0,5.906 -4.765,10.672 -10.656,10.672 z M 85.326,405.334 H 63.998 c -5.906,0 -10.672,-4.781 -10.672,-10.672 0,-5.891 4.766,-10.672 10.672,-10.672 h 21.327 c 5.891,0 10.671,4.781 10.671,10.672 0,5.891 -4.78,10.672 -10.67,10.672 z m 362.661,-10.672 h -74.669 c -27.187,0 -40.843,14.641 -47.515,26.906 -6.766,12.467 -7.5,24.607 -7.562,25.951 v 0.469 H 339.6 c 0.203,-2.031 1.188,-9.578 5.25,-16.781 5.797,-10.232 15.109,-15.217 28.468,-15.217 h 74.669 c 5.891,0 10.656,-4.766 10.656,-10.656 0,-5.89 -4.765,-10.672 -10.656,-10.672 z"
         inkscape:connector-curvature="0"
         style="fill:#dba037;stroke-width:3.90334725" />
      <path
         id="path5436"
         d="m 0,63.994 h 63.999 v 383.99 H 0 Z m 447.983,0 h 63.999 v 383.99 h -63.999 z"
         inkscape:connector-curvature="0"
         style="fill:#ffce54;stroke-width:3.90334725" />
    </g>
  </g>
</svg>
