<?xml version="1.0" encoding="UTF-8" standalone="no"?>
<!-- Created with Inkscape (http://www.inkscape.org/) -->

<svg
   xmlns:dc="http://purl.org/dc/elements/1.1/"
   xmlns:cc="http://creativecommons.org/ns#"
   xmlns:rdf="http://www.w3.org/1999/02/22-rdf-syntax-ns#"
   xmlns:svg="http://www.w3.org/2000/svg"
   xmlns="http://www.w3.org/2000/svg"
   xmlns:sodipodi="http://sodipodi.sourceforge.net/DTD/sodipodi-0.dtd"
   xmlns:inkscape="http://www.inkscape.org/namespaces/inkscape"
   width="128"
   height="128"
   viewBox="0 0 128 128"
   version="1.1"
   id="svg8"
   inkscape:version="0.92.0 r"
   sodipodi:docname="logo.svg">
  <defs
     id="defs2" />
  <sodipodi:namedview
     id="base"
     pagecolor="#ffffff"
     bordercolor="#666666"
     borderopacity="1.0"
     inkscape:pageopacity="0.0"
     inkscape:pageshadow="2"
     inkscape:zoom="8"
     inkscape:cx="63.083189"
     inkscape:cy="70.160251"
     inkscape:document-units="px"
     inkscape:current-layer="layer1"
     showgrid="true"
     units="px"
     inkscape:window-width="1920"
     inkscape:window-height="1015"
     inkscape:window-x="0"
     inkscape:window-y="0"
     inkscape:window-maximized="1"
     inkscape:snap-bbox="true"
     inkscape:bbox-nodes="true"
     inkscape:snap-bbox-midpoints="true"
     inkscape:snap-center="true"
     inkscape:snap-smooth-nodes="true"
     inkscape:snap-midpoints="true"
     inkscape:snap-intersection-paths="true"
     inkscape:object-paths="true"
     inkscape:snap-object-midpoints="true">
    <inkscape:grid
       type="xygrid"
       id="grid4485"
       empspacing="4" />
  </sodipodi:namedview>
  <metadata
     id="metadata5">
    <rdf:RDF>
      <cc:Work
         rdf:about="">
        <dc:format>image/svg+xml</dc:format>
        <dc:type
           rdf:resource="http://purl.org/dc/dcmitype/StillImage" />
        <dc:title></dc:title>
      </cc:Work>
    </rdf:RDF>
  </metadata>
  <g
     inkscape:label="Layer 1"
     inkscape:groupmode="layer"
     id="layer1"
     transform="translate(0,-994.51965)">
    <ellipse
       cy="1058.5197"
       cx="64"
       id="circle4519"
       style="opacity:1;fill:#d45500;fill-opacity:1;stroke:none;stroke-width:1.99999976;stroke-linecap:round;stroke-linejoin:round;stroke-miterlimit:4;stroke-dasharray:none;stroke-dashoffset:0;stroke-opacity:1"
       rx="52"
       ry="51.999996" />
    <path
       style="opacity:1;fill:#e6e6e6;fill-opacity:1;stroke:none;stroke-width:2;stroke-linecap:round;stroke-linejoin:round;stroke-miterlimit:4;stroke-dasharray:none;stroke-dashoffset:0;stroke-opacity:1"
       d="M 64 8 A 56 56 0 0 0 8 64 A 56 56 0 0 0 64 120 A 56 56 0 0 0 120 64 A 56 56 0 0 0 64 8 z M 60.751953 12.115234 C 60.489104 12.131956 60.227174 12.153094 59.964844 12.173828 A 52 51.999996 0 0 1 60.751953 12.115234 z M 69.123047 12.255859 A 52 51.999996 0 0 1 69.375 12.287109 C 69.29082 12.278268 69.20727 12.264287 69.123047 12.255859 z M 55.677734 12.693359 C 55.324789 12.751329 54.972633 12.811676 54.621094 12.876953 A 52 51.999996 0 0 1 55.677734 12.693359 z M 74.138672 13.007812 A 52 51.999996 0 0 1 74.789062 13.154297 C 74.571682 13.107854 74.3566 13.05146 74.138672 13.007812 z M 50.851562 13.724609 C 50.357364 13.855192 49.863481 13.987607 49.373047 14.132812 A 52 51.999996 0 0 1 50.851562 13.724609 z M 64 14 C 65.104569 14 66 14.895431 66 16 C 66 17.104569 65.104569 18 64 18 C 62.895431 18 62 17.104569 62 16 C 62 14.895431 62.895431 14 64 14 z M 79.025391 14.234375 A 52 51.999996 0 0 1 80.087891 14.585938 C 79.733118 14.469993 79.382414 14.34263 79.025391 14.234375 z M 46.226562 15.177734 C 45.588274 15.411715 44.950442 15.649053 44.320312 15.908203 C 48.233666 14.639051 51.214479 15.671355 53.660156 16.861328 C 56.000814 18.000128 59 20 64 20 C 69 20 71.999186 18.000128 74.339844 16.861328 C 76.813599 15.657693 79.832322 14.607388 83.8125 15.945312 C 83.814544 15.945999 83.816315 15.946577 83.818359 15.947266 A 52 51.999996 0 0 1 95.9375 23.041016 C 98.870727 25.762949 99.465002 28.805834 99.654297 31.476562 C 99.838397 34.073063 99.605464 37.6699 102.10547 42 C 104.60547 46.3302 107.83758 47.927066 109.99414 49.384766 C 112.21939 50.888772 114.565 52.930068 115.44922 56.855469 A 52 51.999996 0 0 1 116 64 A 52 51.999996 0 0 1 115.43945 71.181641 C 114.54833 75.081125 112.21189 77.116314 109.99414 78.615234 C 107.83755 80.072934 104.60545 81.6699 102.10547 86 C 99.605408 90.3302 99.838422 93.926938 99.654297 96.523438 C 99.460892 99.252218 98.860795 102.37224 95.757812 105.13867 A 52 51.999996 0 0 1 83.679688 112.0918 A 52 51.999996 0 0 1 81.785156 112.81836 C 82.420002 112.58545 83.052916 112.34956 83.679688 112.0918 C 79.766276 113.3609 76.785491 112.32867 74.339844 111.13867 C 71.999144 109.99987 68.999966 108 64 108 C 58.999906 107.9999 56.000854 109.99987 53.660156 111.13867 C 51.186459 112.34235 48.167656 113.39255 44.1875 112.05469 C 44.185456 112.054 44.183685 112.05342 44.181641 112.05273 A 52 51.999996 0 0 1 32.0625 104.95898 C 29.129288 102.23705 28.534961 99.194166 28.345703 96.523438 C 28.161583 93.926937 28.394511 90.3301 25.894531 86 C 23.39457 81.6698 20.162438 80.072934 18.005859 78.615234 C 15.780599 77.111228 13.435036 75.069932 12.550781 71.144531 A 52 51.999996 0 0 1 12 64 A 52 51.999996 0 0 1 12.560547 56.818359 C 13.451673 52.918875 15.788087 50.883686 18.005859 49.384766 C 20.162434 47.927066 23.394544 46.3301 25.894531 42 C 28.394614 37.6698 28.161588 34.073062 28.345703 31.476562 C 28.539104 28.747782 29.139228 25.62776 32.242188 22.861328 A 52 51.999996 0 0 1 44.320312 15.908203 A 52 51.999996 0 0 1 46.226562 15.177734 z M 32.140625 22.935547 C 31.775832 23.218001 31.421346 23.51285 31.064453 23.804688 A 52 51.999996 0 0 1 32.140625 22.935547 z M 96.458984 23.4375 A 52 51.999996 0 0 1 98.269531 24.945312 C 97.678632 24.429309 97.073847 23.927559 96.458984 23.4375 z M 28.136719 26.376953 C 27.867362 26.63309 27.605517 26.896464 27.341797 27.158203 A 52 51.999996 0 0 1 28.136719 26.376953 z M 100.63477 27.150391 A 52 51.999996 0 0 1 101.68945 28.212891 C 101.34492 27.85185 100.98972 27.501469 100.63477 27.150391 z M 24.505859 30.201172 C 24.311571 30.427554 24.123926 30.659008 23.933594 30.888672 A 52 51.999996 0 0 1 24.505859 30.201172 z M 104.49023 31.400391 A 52 51.999996 0 0 1 104.86133 31.855469 C 104.74001 31.701828 104.61326 31.552594 104.49023 31.400391 z M 21.275391 34.382812 C 21.146204 34.568816 21.021255 34.757611 20.894531 34.945312 A 52 51.999996 0 0 1 21.275391 34.382812 z M 107.73438 35.873047 A 52 51.999996 0 0 1 107.80469 35.990234 C 107.78016 35.951937 107.759 35.911272 107.73438 35.873047 z M 22.291016 38.003906 C 22.675288 37.976743 23.072911 38.060466 23.431641 38.267578 C 24.388211 38.819878 24.714402 40.0434 24.162109 41 C 23.609914 41.9565 22.388254 42.284722 21.431641 41.732422 C 20.47507 41.180122 20.147025 39.9565 20.699219 39 C 21.044402 38.402125 21.650562 38.049179 22.291016 38.003906 z M 105.70898 38.003906 C 106.34942 38.04917 106.95561 38.402187 107.30078 39 C 107.85306 39.9566 107.52494 41.180122 106.56836 41.732422 C 105.61177 42.284722 104.39017 41.9566 103.83789 41 C 103.2856 40.0435 103.61177 38.819878 104.56836 38.267578 C 104.92708 38.060466 105.32472 37.976748 105.70898 38.003906 z M 18.53125 38.798828 C 18.426288 38.988311 18.32316 39.178529 18.220703 39.369141 A 52 51.999996 0 0 1 18.53125 38.798828 z M 110.30469 40.34375 A 52 51.999996 0 0 1 110.42578 40.59375 C 110.38413 40.51101 110.34679 40.426266 110.30469 40.34375 z M 16.28125 43.388672 C 16.175855 43.633697 16.07026 43.878499 15.96875 44.125 A 52 51.999996 0 0 1 16.28125 43.388672 z M 112.38867 44.984375 A 52 51.999996 0 0 1 112.59961 45.560547 C 112.52733 45.369255 112.4632 45.174785 112.38867 44.984375 z M 14.542969 48.029297 C 14.418435 48.418238 14.293026 48.807404 14.177734 49.199219 A 52 51.999996 0 0 1 14.542969 48.029297 z M 114.00195 49.775391 A 52 51.999996 0 0 1 114.25195 50.740234 C 114.16758 50.418826 114.09243 50.09503 114.00195 49.775391 z M 13.275391 52.738281 C 13.151177 53.304756 13.025361 53.870352 12.919922 54.441406 A 52 51.999996 0 0 1 13.275391 52.738281 z M 115.14453 54.716797 A 52 51.999996 0 0 1 115.34766 56.009766 C 115.28099 55.578551 115.22196 55.145923 115.14453 54.716797 z M 12.652344 71.990234 C 12.719009 72.421449 12.778041 72.854077 12.855469 73.283203 A 52 51.999996 0 0 1 12.652344 71.990234 z M 115.08008 73.558594 A 52 51.999996 0 0 1 114.72461 75.261719 C 114.84888 74.695279 114.9746 74.129623 115.08008 73.558594 z M 13.748047 77.259766 C 13.832418 77.581174 13.907573 77.90497 13.998047 78.224609 A 52 51.999996 0 0 1 13.748047 77.259766 z M 113.83203 78.765625 A 52 51.999996 0 0 1 113.44141 80.015625 C 113.57501 79.599866 113.70899 79.184666 113.83203 78.765625 z M 15.400391 82.439453 C 15.472669 82.630745 15.536797 82.825215 15.611328 83.015625 A 52 51.999996 0 0 1 15.400391 82.439453 z M 112.04297 83.841797 A 52 51.999996 0 0 1 111.70312 84.644531 C 111.81816 84.377577 111.93253 84.110498 112.04297 83.841797 z M 22.570312 86.003906 C 23.210733 86.049179 23.816925 86.402125 24.162109 87 C 24.714425 87.9565 24.388255 89.180122 23.431641 89.732422 C 22.47511 90.284722 21.251538 89.9565 20.699219 89 C 20.146925 88.0434 20.475026 86.819878 21.431641 86.267578 C 21.790339 86.060466 22.18606 85.976743 22.570312 86.003906 z M 105.42969 86.003906 C 105.81395 85.976748 106.20963 86.060466 106.56836 86.267578 C 107.52495 86.819878 107.853 88.0435 107.30078 89 C 106.74848 89.9566 105.52496 90.284722 104.56836 89.732422 C 103.61176 89.180122 103.28559 87.9566 103.83789 87 C 104.18302 86.402187 104.78925 86.04917 105.42969 86.003906 z M 17.574219 87.40625 C 17.615872 87.48899 17.65321 87.573734 17.695312 87.65625 A 52 51.999996 0 0 1 17.574219 87.40625 z M 109.7793 88.630859 A 52 51.999996 0 0 1 109.46875 89.201172 C 109.57365 89.011652 109.6769 88.821502 109.7793 88.630859 z M 20.195312 92.009766 C 20.219835 92.048068 20.241005 92.088722 20.265625 92.126953 A 52 51.999996 0 0 1 20.195312 92.009766 z M 107.10547 93.054688 A 52 51.999996 0 0 1 106.72461 93.617188 C 106.8538 93.431184 106.97875 93.242389 107.10547 93.054688 z M 23.140625 96.146484 C 23.259181 96.296601 23.381763 96.443055 23.501953 96.591797 A 52 51.999996 0 0 1 23.140625 96.146484 z M 104.06641 97.111328 A 52 51.999996 0 0 1 103.49414 97.798828 C 103.68843 97.572446 103.87607 97.340992 104.06641 97.111328 z M 26.345703 99.828125 C 26.671928 100.16919 27.008207 100.49987 27.34375 100.83203 A 52 51.999996 0 0 1 26.345703 99.828125 z M 100.6582 100.8418 A 52 51.999996 0 0 1 99.863281 101.62305 C 100.13264 101.36691 100.39448 101.10354 100.6582 100.8418 z M 29.730469 103.05469 C 30.321435 103.57065 30.926134 104.07245 31.541016 104.5625 A 52 51.999996 0 0 1 29.730469 103.05469 z M 96.935547 104.19531 A 52 51.999996 0 0 1 95.859375 105.06445 C 96.224168 104.782 96.578653 104.48715 96.935547 104.19531 z M 64 110 C 65.104459 109.9999 66.000006 110.8954 66 112 C 65.999989 113.1045 65.104464 113.9999 64 114 C 62.895411 114 61.999994 113.1046 62 112 C 62.000006 110.8955 62.89541 110 64 110 z M 47.912109 113.41406 C 48.26688 113.53001 48.617587 113.65737 48.974609 113.76562 A 52 51.999996 0 0 1 47.912109 113.41406 z M 78.626953 113.86719 A 52 51.999996 0 0 1 77.148438 114.27539 C 77.642636 114.14474 78.136519 114.01246 78.626953 113.86719 z M 53.210938 114.8457 C 53.428318 114.89215 53.6434 114.94854 53.861328 114.99219 A 52 51.999996 0 0 1 53.210938 114.8457 z M 73.339844 115.13086 A 52 51.999996 0 0 1 72.359375 115.30273 C 72.686919 115.24867 73.013512 115.19123 73.339844 115.13086 z M 58.625 115.71289 C 58.709181 115.72173 58.792729 115.73571 58.876953 115.74414 A 52 51.999996 0 0 1 58.625 115.71289 z M 68.035156 115.82617 A 52 51.999996 0 0 1 67.248047 115.88477 C 67.510896 115.86809 67.772827 115.84687 68.035156 115.82617 z "
       transform="translate(0,994.51965)"
       id="path4487" />
    <path
       style="fill:#e6e6e6;fill-rule:evenodd;stroke:none;stroke-width:1px;stroke-linecap:butt;stroke-linejoin:miter;stroke-opacity:1"
       d="m 48,1024.5197 -2,8 2,5 v 23 h -4 l -1,2 c 0,0 2,3 2,4 0,3 -1,4 -1,8 v 16 c 0,2 1,3 2,3 h 8 c 1,0 2,-1 2,-3 v -16 c 0,-4 -1,-5 -1,-8 0,-1 2,-4 2,-4 l -1,-2 h -4 v -23 l 2,-5 -2,-8 z"
       id="path4485"
       inkscape:connector-curvature="0"
       sodipodi:nodetypes="ccccccssccccssccccccc" />
    <path
       style="opacity:1;fill:#e6e6e6;fill-opacity:1;stroke:none;stroke-width:1.9999994;stroke-linecap:round;stroke-linejoin:round;stroke-miterlimit:4;stroke-dasharray:none;stroke-dashoffset:0;stroke-opacity:1"
       d="M 87 30.265625 L 87 41 C 87 43.2159 85.216 45 83 45 L 77 45 C 74.784 45 73 43.2159 73 41 L 73 30.271484 A 12 11.999998 0 0 0 68 40 A 12 11.999998 0 0 0 68.060547 41.199219 C 68.680804 50.068538 76 51.169051 76 55 C 76 59 72 84 72 92 A 7.9999981 7.9999995 0 0 0 80 100 A 7.9999981 7.9999995 0 0 0 88 92 C 88 84 84 59 84 55 C 84 51.147026 91.401601 50.053724 91.947266 41.042969 A 12 11.999998 0 0 0 92 40 A 12 11.999998 0 0 0 87 30.265625 z M 80 86 A 6 6 0 0 1 86 92 A 6 6 0 0 1 80 98 A 6 6 0 0 1 74 92 A 6 6 0 0 1 80 86 z "
       transform="translate(0,994.51965)"
       id="path4488" />
    <rect
       style="opacity:1;fill:#b3b3b3;fill-opacity:1;stroke:none;stroke-width:2;stroke-linecap:round;stroke-linejoin:round;stroke-miterlimit:4;stroke-dasharray:none;stroke-dashoffset:0;stroke-opacity:1"
       id="rect4526"
       width="2"
       height="19"
       x="49"
       y="1072.5197"
       rx="1"
       ry="1" />
    <rect
       style="opacity:1;fill:#b3b3b3;fill-opacity:1;stroke:none;stroke-width:2;stroke-linecap:round;stroke-linejoin:round;stroke-miterlimit:4;stroke-dasharray:none;stroke-dashoffset:0;stroke-opacity:1"
       id="rect4528"
       width="2"
       height="19"
       x="45"
       y="1072.5197"
       rx="1"
       ry="1" />
    <rect
       style="opacity:1;fill:#b3b3b3;fill-opacity:1;stroke:none;stroke-width:2;stroke-linecap:round;stroke-linejoin:round;stroke-miterlimit:4;stroke-dasharray:none;stroke-dashoffset:0;stroke-opacity:1"
       id="rect4530"
       width="2"
       height="19"
       x="53"
       y="1072.5197"
       rx="1"
       ry="1" />
    <path
       style="opacity:1;fill:#999999;fill-opacity:1;stroke:none;stroke-width:1.9999994;stroke-linecap:round;stroke-linejoin:round;stroke-miterlimit:4;stroke-dasharray:none;stroke-dashoffset:0;stroke-opacity:1"
       d="m 78,1051.5197 c -1.754116,14.0329 -3,19 -3.5,29.1933 2.5,-3.1933 8.5,-3.1933 11.138672,-0.066 C 85,1070.5197 83.754116,1065.5526 82,1051.5197 c -0.248069,-1.9846 -3.751931,-1.9846 -4,0 z"
       id="path4535"
       inkscape:connector-curvature="0"
       sodipodi:nodetypes="sccss" />
  </g>
</svg>
