<?xml version="1.0" encoding="UTF-8" standalone="no"?>
<!-- Created with Inkscape (http://www.inkscape.org/) -->

<svg
   xmlns:dc="http://purl.org/dc/elements/1.1/"
   xmlns:cc="http://creativecommons.org/ns#"
   xmlns:rdf="http://www.w3.org/1999/02/22-rdf-syntax-ns#"
   xmlns:svg="http://www.w3.org/2000/svg"
   xmlns="http://www.w3.org/2000/svg"
   xmlns:sodipodi="http://sodipodi.sourceforge.net/DTD/sodipodi-0.dtd"
   xmlns:inkscape="http://www.inkscape.org/namespaces/inkscape"
   width="128"
   height="128"
   viewBox="0 0 128 128"
   version="1.1"
   id="svg8"
   inkscape:version="0.92.0 r"
   sodipodi:docname="ph-icon.svg">
  <defs
     id="defs2" />
  <sodipodi:namedview
     id="base"
     pagecolor="#ffffff"
     bordercolor="#666666"
     borderopacity="1.0"
     inkscape:pageopacity="0.0"
     inkscape:pageshadow="2"
     inkscape:zoom="5.6"
     inkscape:cx="58.889112"
     inkscape:cy="58.655426"
     inkscape:document-units="px"
     inkscape:current-layer="layer1"
     showgrid="true"
     units="px"
     inkscape:window-width="1920"
     inkscape:window-height="1014"
     inkscape:window-x="0"
     inkscape:window-y="0"
     inkscape:window-maximized="1">
    <inkscape:grid
       type="xygrid"
       id="grid4485"
       empspacing="4" />
  </sodipodi:namedview>
  <metadata
     id="metadata5">
    <rdf:RDF>
      <cc:Work
         rdf:about="">
        <dc:format>image/svg+xml</dc:format>
        <dc:type
           rdf:resource="http://purl.org/dc/dcmitype/StillImage" />
        <dc:title></dc:title>
      </cc:Work>
    </rdf:RDF>
  </metadata>
  <g
     inkscape:label="Layer 1"
     inkscape:groupmode="layer"
     id="layer1"
     transform="translate(0,-192.5333)">
    <path
       style="color:#000000;font-style:normal;font-variant:normal;font-weight:normal;font-stretch:normal;font-size:medium;line-height:normal;font-family:sans-serif;font-variant-ligatures:normal;font-variant-position:normal;font-variant-caps:normal;font-variant-numeric:normal;font-variant-alternates:normal;font-feature-settings:normal;text-indent:0;text-align:start;text-decoration:none;text-decoration-line:none;text-decoration-style:solid;text-decoration-color:#000000;letter-spacing:normal;word-spacing:normal;text-transform:none;writing-mode:lr-tb;direction:ltr;text-orientation:mixed;dominant-baseline:auto;baseline-shift:baseline;text-anchor:start;white-space:normal;shape-padding:0;clip-rule:nonzero;display:inline;overflow:visible;visibility:visible;opacity:1;isolation:auto;mix-blend-mode:normal;color-interpolation:sRGB;color-interpolation-filters:linearRGB;solid-color:#000000;solid-opacity:1;vector-effect:none;fill:#999999;fill-opacity:1;fill-rule:nonzero;stroke:none;stroke-width:2;stroke-linecap:round;stroke-linejoin:round;stroke-miterlimit:4;stroke-dasharray:2, 4;stroke-dashoffset:0;stroke-opacity:1;color-rendering:auto;image-rendering:auto;shape-rendering:auto;text-rendering:auto;enable-background:accumulate"
       d="m 27.199219,203.93555 -0.158203,0.88086 0.611328,0.65429 L 28,205.5332 h 2 L 30.800781,205.13281 30.958984,204.25 30.347656,203.5957 30,203.5332 h -2 z m 6,0 -0.158203,0.88086 0.611328,0.65429 L 34,205.5332 h 2 L 36.800781,205.13281 36.958984,204.25 36.347656,203.5957 36,203.5332 h -2 z m 6,0 -0.158203,0.88086 0.611328,0.65429 L 40,205.5332 h 2 L 42.800781,205.13281 42.958984,204.25 42.347656,203.5957 42,203.5332 h -2 z m 6,0 -0.158203,0.88086 0.611328,0.65429 L 46,205.5332 h 2 L 48.800781,205.13281 48.958984,204.25 48.347656,203.5957 48,203.5332 h -2 z m 6,0 -0.158203,0.88086 0.611328,0.65429 L 52,205.5332 h 2 L 54.800781,205.13281 54.958984,204.25 54.347656,203.5957 54,203.5332 h -2 z m 6,0 -0.158203,0.88086 0.611328,0.65429 L 58,205.5332 h 2 L 60.800781,205.13281 60.958984,204.25 60.347656,203.5957 60,203.5332 h -2 z m 6,0 -0.158203,0.88086 0.611328,0.65429 L 64,205.5332 h 2 L 66.800781,205.13281 66.958984,204.25 66.347656,203.5957 66,203.5332 h -2 z m 6,0 -0.158203,0.88086 0.611328,0.65429 L 70,205.5332 h 2 L 72.800781,205.13281 72.958984,204.25 72.347656,203.5957 72,203.5332 h -2 z m 6,0 -0.158203,0.88086 0.611328,0.65429 L 76,205.5332 h 2 L 78.800781,205.13281 78.958984,204.25 78.347656,203.5957 78,203.5332 h -2 z m 6,0 -0.158203,0.88086 0.611328,0.65429 L 82,205.5332 h 2 L 84.800781,205.13281 84.958984,204.25 84.347656,203.5957 84,203.5332 h -2 z m 6,0 -0.158203,0.88086 0.611328,0.65429 L 88,205.5332 h 2 L 90.800781,205.13281 90.958984,204.25 90.347656,203.5957 90,203.5332 h -2 z m 6,0 -0.158203,0.88086 0.611328,0.65429 L 94,205.5332 h 2 L 96.800781,205.13281 96.958984,204.25 96.347656,203.5957 96,203.5332 h -2 z m 6.03125,-0.041 -0.203125,0.87305 0.580078,0.68554 0.341797,0.0781 1.605471,0.082 0.28906,0.0449 0.85156,-0.27734 0.28907,-0.84766 -0.50586,-0.73828 -0.33399,-0.11523 -0.35351,-0.0527 -0.0996,-0.01 -1.64063,-0.082 z m -74.613281,-0.0254 -0.09766,0.0195 -1.259765,0.32227 -0.675782,0.58789 0.06641,0.89258 0.753906,0.48242 0.351562,-0.0254 1.214844,-0.31055 0.638672,-0.0977 0.732422,-0.51562 0.02344,-0.89649 -0.703125,-0.55468 -0.351562,-0.01 z m 80.695312,0.94336 -0.45117,0.77344 0.35156,0.82422 0.30469,0.17773 0.34375,0.125 1.29687,0.62305 0.0469,0.0234 0.01,-0.0195 0.83594,0.0684 0.5918,-0.67187 -0.1836,-0.87695 -0.26367,-0.23243 -0.0391,-0.0234 -0.084,-0.0469 -1.40039,-0.67187 -0.0898,-0.0371 -0.37891,-0.13868 z m -85.978516,1.09961 -0.810546,0.49219 -0.08008,0.0527 -0.84375,0.63086 -0.402343,0.80078 0.402343,0.80078 0.88086,0.15821 0.316406,-0.15821 0.814453,-0.60742 0.757813,-0.45898 0.478515,-0.75782 -0.322265,-0.83789 -0.863282,-0.24218 z m 90.667966,2.47851 0.0137,0.89649 0.21485,0.2793 0.38672,0.34961 0.92969,1.02539 0.83593,0.32226 0.75781,-0.47656 0.0723,-0.89258 -0.18555,-0.29883 -0.96289,-1.05859 -0.0684,-0.0684 -0.41992,-0.38281 -0.86328,-0.24024 z m -95.169919,1.47461 -0.257812,0.24024 -0.650391,0.87109 -0.05273,0.0801 -0.47461,0.78125 -0.07226,0.89258 0.673828,0.59375 0.876953,-0.18555 0.232422,-0.26367 0.443359,-0.73047 0.626953,-0.8418 0.15625,-0.88085 -0.611328,-0.6543 z m 98.925779,3.02539 -0.32422,0.83399 0.0937,0.33984 0.29297,0.60743 0.41992,1.15429 0.65235,0.61524 0.88281,-0.1543 0.4043,-0.79883 -0.0605,-0.34766 -0.43359,-1.18945 -0.0371,-0.0898 -0.31836,-0.66211 -0.70899,-0.54883 z m -101.925779,2.55079 -0.146484,0.32031 -0.330078,1.29101 -0.01953,0.0977 -0.101563,0.66016 0.277344,0.85156 0.847656,0.28906 0.740234,-0.50781 0.113282,-0.33398 0.0918,-0.60547 0.318359,-1.2461 -0.189453,-0.87695 -0.816406,-0.37109 z m 103.156249,3.65625 -0.0449,0.34961 0.0566,1.08593 v 0.0137 0.84765 l 0.40234,0.80078 0.88086,0.15821 0.6543,-0.61133 0.0625,-0.34766 v -0.86133 l -0.002,-0.0508 -0.0566,-1.13672 -0.44141,-0.77929 -0.88867,-0.11329 z M 11.0625,221.59961 11,221.94727 v 2 l 0.402344,0.80078 0.880859,0.1582 L 12.9375,224.29492 13,223.94727 v -2 l -0.402344,-0.80079 -0.880859,-0.1582 z m 104,3.44922 -0.0625,0.3457 v 2 l 0.40234,0.80078 0.88086,0.15821 0.6543,-0.61133 0.0625,-0.34766 v -2 l -0.40234,-0.80078 -0.88086,-0.1582 z m -104,2.55078 L 11,227.94727 v 2 l 0.402344,0.80078 0.880859,0.1582 L 12.9375,230.29492 13,229.94727 v -2 l -0.402344,-0.80079 -0.880859,-0.1582 z m 104,3.44922 -0.0625,0.3457 v 2 l 0.40234,0.80078 0.88086,0.15821 0.6543,-0.61133 0.0625,-0.34766 v -2 l -0.40234,-0.80078 -0.88086,-0.1582 z m -104,2.55078 L 11,233.94727 v 2 l 0.402344,0.80078 0.880859,0.1582 L 12.9375,236.29492 13,235.94727 v -2 l -0.402344,-0.80079 -0.880859,-0.1582 z m 104,3.44922 -0.0625,0.3457 v 2 l 0.40234,0.80078 0.88086,0.15821 0.6543,-0.61133 0.0625,-0.34766 v -2 l -0.40234,-0.80078 -0.88086,-0.1582 z m -104,2.55078 L 11,239.94727 v 2 l 0.402344,0.80078 0.880859,0.1582 L 12.9375,242.29492 13,241.94727 v -2 l -0.402344,-0.80079 -0.880859,-0.1582 z m 104,3.44922 -0.0625,0.3457 v 2 l 0.40234,0.80078 0.88086,0.15821 0.6543,-0.61133 0.0625,-0.34766 v -2 l -0.40234,-0.80078 -0.88086,-0.1582 z m -104,2.55078 L 11,245.94727 v 2 l 0.402344,0.80078 0.880859,0.1582 L 12.9375,248.29492 13,247.94727 v -2 l -0.402344,-0.80079 -0.880859,-0.1582 z m 104,3.44922 -0.0625,0.3457 v 2 l 0.40234,0.80078 0.88086,0.15821 0.6543,-0.61133 0.0625,-0.34766 v -2 l -0.40234,-0.80078 -0.88086,-0.1582 z m -104,2.55078 L 11,251.94727 v 2 l 0.402344,0.80078 0.880859,0.1582 L 12.9375,254.29492 13,253.94727 v -2 l -0.402344,-0.80079 -0.880859,-0.1582 z m 104,3.44922 -0.0625,0.3457 v 2 l 0.40234,0.80078 0.88086,0.15821 0.6543,-0.61133 0.0625,-0.34766 v -2 l -0.40234,-0.80078 -0.88086,-0.1582 z m -104,2.55078 L 11,257.94727 v 2 l 0.402344,0.80078 0.880859,0.1582 L 12.9375,260.29492 13,259.94727 v -2 l -0.402344,-0.80079 -0.880859,-0.1582 z m 104,3.44922 -0.0625,0.3457 v 2 l 0.40234,0.80078 0.88086,0.15821 0.6543,-0.61133 0.0625,-0.34766 v -2 l -0.40234,-0.80078 -0.88086,-0.1582 z m -104,2.55078 L 11,263.94727 v 2 l 0.402344,0.80078 0.880859,0.1582 L 12.9375,266.29492 13,265.94727 v -2 l -0.402344,-0.80079 -0.880859,-0.1582 z m 104,3.44922 -0.0625,0.3457 v 2 l 0.40234,0.80078 0.88086,0.15821 0.6543,-0.61133 0.0625,-0.34766 v -2 l -0.40234,-0.80078 -0.88086,-0.1582 z m -104,2.55078 L 11,269.94727 v 2 l 0.402344,0.80078 0.880859,0.1582 L 12.9375,272.29492 13,271.94727 v -2 l -0.402344,-0.80079 -0.880859,-0.1582 z m 104,3.44922 -0.0625,0.3457 v 2 l 0.40234,0.80078 0.88086,0.15821 0.6543,-0.61133 0.0625,-0.34766 v -2 l -0.40234,-0.80078 -0.88086,-0.1582 z m -104,2.55078 L 11,275.94727 v 2 l 0.402344,0.80078 0.880859,0.1582 L 12.9375,278.29492 13,277.94727 v -2 l -0.402344,-0.80079 -0.880859,-0.1582 z m 104,3.44922 -0.0625,0.3457 v 2 l 0.40234,0.80078 0.88086,0.15821 0.6543,-0.61133 0.0625,-0.34766 v -2 l -0.40234,-0.80078 -0.88086,-0.1582 z m -104,2.55078 L 11,281.94727 v 2 l 0.402344,0.80078 0.880859,0.1582 L 12.9375,284.29492 13,283.94727 v -2 l -0.402344,-0.80079 -0.880859,-0.1582 z m 104,3.44922 -0.0625,0.3457 v 2 l 0.40234,0.80078 0.88086,0.15821 0.6543,-0.61133 0.0625,-0.34766 v -2 l -0.40234,-0.80078 -0.88086,-0.1582 z m -104,2.55078 L 11,287.94727 v 2 l 0.402344,0.80078 0.880859,0.1582 L 12.9375,290.29492 13,289.94727 v -2 l -0.402344,-0.80079 -0.880859,-0.1582 z m 104,3.44922 -0.0625,0.3457 v 1.12695 0.0117 l -0.041,0.81055 0.35938,0.82031 0.87305,0.20117 0.68554,-0.57812 0.0781,-0.34375 0.043,-0.85938 0.002,-0.0508 v -1.13867 l -0.40234,-0.80078 -0.88086,-0.1582 z m -103.945312,2.59765 -0.04492,0.34961 0.01172,0.22852 0.0098,0.0996 0.242188,1.5918 0.01953,0.0976 0.03906,0.15625 0.587891,0.67578 0.894531,-0.0645 0.482422,-0.75586 -0.02734,-0.35156 -0.02734,-0.10938 -0.226563,-1.49023 -0.0078,-0.17774 -0.441406,-0.78125 -0.888672,-0.11328 z m 103.394532,3.0293 -0.17578,0.30469 -0.51563,1.41211 -0.17383,0.35937 0.0156,0.89649 0.72656,0.52344 0.85547,-0.26758 0.20508,-0.28516 0.19922,-0.41406 0.0371,-0.0899 0.52929,-1.44921 -0.10351,-0.88868 -0.77344,-0.45117 z m -101.492189,2.26563 -0.324219,0.83593 0.09375,0.33985 0.234376,0.48828 0.04687,0.084 0.75586,1.24805 0.757812,0.47656 0.837891,-0.32226 0.242187,-0.86328 -0.126953,-0.32813 -0.734375,-1.20898 -0.210937,-0.44141 -0.708985,-0.54883 z m 98.896489,2.80273 -0.25782,0.24024 -0.0723,0.0957 -0.97071,1.07031 -0.17968,0.16406 -0.32422,0.83594 0.47656,0.75781 0.89258,0.0742 0.29883,-0.1875 0.21679,-0.19726 0.0684,-0.0684 1.03125,-1.13477 0.0606,-0.0742 0.10352,-0.13867 0.1582,-0.88281 -0.61133,-0.6543 z m -95.515629,2.24609 0.01367,0.89649 0.214844,0.2793 0.509766,0.46289 0.07422,0.0605 1.050781,0.78516 0.882812,0.1582 0.654297,-0.61328 -0.09961,-0.89062 -0.240234,-0.25586 -1.007813,-0.75391 -0.478516,-0.43359 -0.863281,-0.24219 z m 90.994139,1.59571 -0.23828,0.14453 -1.29883,0.625 -0.0801,0.0293 -0.61523,0.65039 0.1543,0.88281 0.79882,0.40625 0.34571,-0.0606 0.12109,-0.0449 0.0898,-0.0371 1.40039,-0.67187 0.084,-0.0469 0.27344,-0.16601 0.47851,-0.75782 -0.32226,-0.83594 -0.86328,-0.24218 z m -85.542968,1.08984 -0.449218,0.77539 0.349609,0.82422 0.304688,0.17773 0.832031,0.30274 0.0957,0.0293 1.078125,0.27539 0.876953,-0.18946 0.371094,-0.81445 -0.431641,-0.78711 -0.320312,-0.14648 -1.033203,-0.26367 -0.783203,-0.28516 z m 79.685548,0.7793 -1.31055,0.0664 -0.781248,0.43946 -0.113281,0.89062 0.644531,0.6211 0.349608,0.0449 1.36524,-0.0684 0.0996,-0.01 0.625,-0.0957 0.73242,-0.51563 0.0234,-0.89648 -0.70313,-0.55469 -0.35156,-0.01 z m -74.062501,0.48047 -0.158203,0.88086 0.613282,0.65429 0.345703,0.0625 h 2 l 0.802734,-0.40039 0.15625,-0.88281 -0.611328,-0.6543 -0.347656,-0.0625 h -2 z m 6,0 -0.158203,0.88086 0.613282,0.65429 0.345703,0.0625 h 2 l 0.802734,-0.40039 0.15625,-0.88281 -0.611328,-0.6543 -0.347656,-0.0625 h -2 z m 6,0 -0.158203,0.88086 0.613282,0.65429 0.345703,0.0625 h 2 l 0.802734,-0.40039 0.15625,-0.88281 -0.611328,-0.6543 -0.347656,-0.0625 h -2 z m 6,0 -0.158203,0.88086 0.613282,0.65429 0.345703,0.0625 h 2 l 0.802734,-0.40039 0.15625,-0.88281 -0.611328,-0.6543 -0.347656,-0.0625 h -2 z m 6,0 -0.158203,0.88086 0.613282,0.65429 0.345703,0.0625 h 2 l 0.802734,-0.40039 0.15625,-0.88281 -0.611328,-0.6543 -0.347656,-0.0625 h -2 z m 6,0 -0.158203,0.88086 0.613282,0.65429 0.345703,0.0625 h 2 l 0.802734,-0.40039 0.15625,-0.88281 -0.611328,-0.6543 -0.347656,-0.0625 h -2 z m 6,0 -0.158203,0.88086 0.613282,0.65429 0.345703,0.0625 h 2 l 0.802734,-0.40039 0.15625,-0.88281 -0.611328,-0.6543 -0.347656,-0.0625 h -2 z m 6,0 -0.158203,0.88086 0.613282,0.65429 0.345703,0.0625 h 2 l 0.802734,-0.40039 0.15625,-0.88281 -0.611328,-0.6543 -0.347656,-0.0625 h -2 z m 6,0 -0.158203,0.88086 0.613282,0.65429 0.345703,0.0625 h 2 l 0.802734,-0.40039 0.15625,-0.88281 -0.611328,-0.6543 -0.347656,-0.0625 h -2 z m 6,0 -0.158203,0.88086 0.613282,0.65429 0.345703,0.0625 h 2 l 0.802734,-0.40039 0.15625,-0.88281 -0.611328,-0.6543 -0.347656,-0.0625 h -2 z m 6,0 -0.158203,0.88086 0.613282,0.65429 0.345703,0.0625 h 2 l 0.802734,-0.40039 0.15625,-0.88281 -0.611328,-0.6543 -0.347656,-0.0625 h -2 z m 6,0 -0.158203,0.88086 0.613282,0.65429 0.345703,0.0625 h 2 l 0.802734,-0.40039 0.15625,-0.88281 -0.611328,-0.6543 -0.347656,-0.0625 h -2 z"
       id="rect4487"
       inkscape:connector-curvature="0" />
  </g>
</svg>
